<svg width="352" height="450" viewBox="0 0 352 450" fill="none" xmlns="http://www.w3.org/2000/svg">
<path d="M350.5 450L350.5 0.453125L351.5 0.453125L351.5 450L350.5 450ZM335.871 450L335.871 0.453125L336.871 0.453125L336.871 450L335.871 450ZM321.242 450L321.242 0.453125L322.242 0.453125L322.242 450L321.242 450ZM306.613 450L306.613 0.453124L307.613 0.453124L307.613 450L306.613 450ZM291.984 450L291.984 0.453124L292.984 0.453124L292.984 450L291.984 450ZM277.355 450L277.355 0.453124L278.355 0.453124L278.355 450L277.355 450ZM262.726 450L262.726 0.453124L263.726 0.453124L263.726 450L262.726 450ZM248.097 450L248.097 0.453124L249.097 0.453124L249.097 450L248.097 450ZM233.468 450L233.468 0.453124L234.468 0.453124L234.468 450L233.468 450Z" fill="url(#paint0_linear_1_2602)" fill-opacity="0.6"/>
<path d="M233.468 450L233.468 0.453125L234.468 0.453125L234.468 450L233.468 450ZM218.839 450L218.839 0.453125L219.839 0.453125L219.839 450L218.839 450ZM204.21 450L204.21 0.453125L205.21 0.453125L205.21 450L204.21 450ZM189.581 450L189.581 0.453124L190.581 0.453124L190.581 450L189.581 450ZM174.952 450L174.952 0.453124L175.952 0.453124L175.952 450L174.952 450ZM160.323 450L160.323 0.453124L161.323 0.453124L161.323 450L160.323 450ZM145.694 450L145.694 0.453124L146.694 0.453124L146.694 450L145.694 450ZM131.065 450L131.065 0.453124L132.065 0.453124L132.065 450L131.065 450ZM116.436 450L116.436 0.453124L117.436 0.453124L117.436 450L116.436 450Z" fill="url(#paint1_linear_1_2602)" fill-opacity="0.6"/>
<path d="M117.533 450L117.533 0.453125L118.533 0.453125L118.533 450L117.533 450ZM102.904 450L102.904 0.453125L103.904 0.453125L103.904 450L102.904 450ZM88.2751 450L88.2751 0.453125L89.2751 0.453125L89.2751 450L88.2751 450ZM73.6461 450L73.6461 0.453124L74.6461 0.453124L74.6461 450L73.6461 450ZM59.0171 450L59.0171 0.453124L60.0171 0.453124L60.0171 450L59.0171 450ZM44.3881 450L44.3881 0.453124L45.3881 0.453124L45.3881 450L44.3881 450ZM29.7591 450L29.7591 0.453124L30.7591 0.453124L30.7591 450L29.7591 450ZM15.13 450L15.13 0.453124L16.13 0.453124L16.13 450L15.13 450ZM0.501022 450L0.501028 0.453124L1.50103 0.453124L1.50102 450L0.501022 450Z" fill="url(#paint2_linear_1_2602)" fill-opacity="0.6"/>
<defs>
<linearGradient id="paint0_linear_1_2602" x1="292.486" y1="450" x2="281.465" y2="0.620209" gradientUnits="userSpaceOnUse">
<stop stop-color="#A034D9" stop-opacity="0.34"/>
<stop offset="0.514801" stop-color="white" stop-opacity="0"/>
<stop offset="1" stop-color="white" stop-opacity="0"/>
</linearGradient>
<linearGradient id="paint1_linear_1_2602" x1="175.453" y1="450" x2="164.433" y2="0.620209" gradientUnits="userSpaceOnUse">
<stop stop-color="#A034D9" stop-opacity="0.34"/>
<stop offset="0.514801" stop-color="white" stop-opacity="0"/>
<stop offset="1" stop-color="white" stop-opacity="0"/>
</linearGradient>
<linearGradient id="paint2_linear_1_2602" x1="59.5185" y1="450" x2="48.4983" y2="0.620209" gradientUnits="userSpaceOnUse">
<stop stop-color="#A034D9" stop-opacity="0.34"/>
<stop offset="0.514801" stop-color="white" stop-opacity="0"/>
<stop offset="1" stop-color="white" stop-opacity="0"/>
</linearGradient>
</defs>
</svg>
