<svg width="1342" height="1298" viewBox="0 0 1342 1298" fill="none" xmlns="http://www.w3.org/2000/svg">
<path d="M0 1.5H1342V0.5H0V1.5ZM0 55.6692H1342V54.6692H0V55.6692ZM0 109.838H1342V108.838H0V109.838ZM0 164.008H1342V163.008H0V164.008ZM0 218.177H1342V217.177H0V218.177ZM0 272.346H1342V271.346H0V272.346ZM0 326.515H1342V325.515H0V326.515ZM0 380.684H1342V379.684H0V380.684ZM0 434.854H1342V433.854H0V434.854Z" fill="url(#paint0_linear_1_274)" fill-opacity="0.6"/>
<path d="M0 434.854H1342V433.854H0V434.854ZM0 489.024H1342V488.024H0V489.024ZM0 543.193H1342V542.193H0V543.193ZM0 597.362H1342V596.362H0V597.362ZM0 651.531H1342V650.531H0V651.531ZM0 705.701H1342V704.701H0V705.701ZM0 759.87H1342V758.87H0V759.87ZM0 814.039H1342V813.039H0V814.039ZM0 868.208H1342V867.208H0V868.208Z" fill="url(#paint1_linear_1_274)" fill-opacity="0.6"/>
<path d="M0 864.146H1342V863.146H0V864.146ZM0 918.315H1342V917.315H0V918.315ZM0 972.484H1342V971.484H0V972.484ZM0 1026.65H1342V1025.65H0V1026.65ZM0 1080.82H1342V1079.82H0V1080.82ZM0 1134.99H1342V1133.99H0V1134.99ZM0 1189.16H1342V1188.16H0V1189.16ZM0 1243.33H1342V1242.33H0V1243.33ZM0 1297.5H1342V1296.5H0V1297.5Z" fill="url(#paint2_linear_1_274)" fill-opacity="0.6"/>
<defs>
<linearGradient id="paint0_linear_1_274" x1="0.000104592" y1="217.672" x2="1341.78" y2="244.199" gradientUnits="userSpaceOnUse">
<stop stop-color="#A034D9" stop-opacity="0.34"/>
<stop offset="0.514801" stop-color="white" stop-opacity="0"/>
<stop offset="1" stop-color="white" stop-opacity="0"/>
</linearGradient>
<linearGradient id="paint1_linear_1_274" x1="0.000104592" y1="651.026" x2="1341.78" y2="677.554" gradientUnits="userSpaceOnUse">
<stop stop-color="#A034D9" stop-opacity="0.34"/>
<stop offset="0.514801" stop-color="white" stop-opacity="0"/>
<stop offset="1" stop-color="white" stop-opacity="0"/>
</linearGradient>
<linearGradient id="paint2_linear_1_274" x1="0.000104592" y1="1080.32" x2="1341.78" y2="1106.84" gradientUnits="userSpaceOnUse">
<stop stop-color="#A034D9" stop-opacity="0.34"/>
<stop offset="0.514801" stop-color="white" stop-opacity="0"/>
<stop offset="1" stop-color="white" stop-opacity="0"/>
</linearGradient>
</defs>
</svg>
