<svg width="1349" height="539" viewBox="0 0 1349 539" fill="none" xmlns="http://www.w3.org/2000/svg">
<path d="M0.200928 1.00403L1348.2 1.00403L1348.2 0.00402831L0.200928 0.00402832L0.200928 1.00403ZM0.200928 23.4593L1348.2 23.4593L1348.2 22.4593L0.200928 22.4593L0.200928 23.4593ZM0.200928 45.9146L1348.2 45.9146L1348.2 44.9146L0.200928 44.9146L0.200928 45.9146ZM0.200928 68.3699L1348.2 68.3699L1348.2 67.3699L0.200928 67.3699L0.200928 68.3699ZM0.200928 90.8252L1348.2 90.8252L1348.2 89.8252L0.200928 89.8252L0.200928 90.8252ZM0.200928 113.281L1348.2 113.281L1348.2 112.281L0.200928 112.281L0.200928 113.281ZM0.200928 135.736L1348.2 135.736L1348.2 134.736L0.200928 134.736L0.200928 135.736ZM0.200928 158.191L1348.2 158.191L1348.2 157.191L0.200928 157.191L0.200928 158.191ZM0.200928 180.646L1348.2 180.646L1348.2 179.646L0.200928 179.646L0.200928 180.646Z" fill="url(#paint0_linear_1_567)" fill-opacity="0.6"/>
<path d="M0.200928 180.647L1348.2 180.647L1348.2 179.647L0.200928 179.647L0.200928 180.647ZM0.200928 203.102L1348.2 203.102L1348.2 202.102L0.200928 202.102L0.200928 203.102ZM0.200928 225.557L1348.2 225.557L1348.2 224.557L0.200928 224.557L0.200928 225.557ZM0.200928 248.013L1348.2 248.013L1348.2 247.013L0.200928 247.013L0.200928 248.013ZM0.200928 270.468L1348.2 270.468L1348.2 269.468L0.200928 269.468L0.200928 270.468ZM0.200928 292.923L1348.2 292.923L1348.2 291.923L0.200928 291.923L0.200928 292.923ZM0.200928 315.378L1348.2 315.378L1348.2 314.378L0.200928 314.378L0.200928 315.378ZM0.200928 337.834L1348.2 337.834L1348.2 336.834L0.200928 336.834L0.200928 337.834ZM0.200928 360.289L1348.2 360.289L1348.2 359.289L0.200928 359.289L0.200928 360.289Z" fill="url(#paint1_linear_1_567)" fill-opacity="0.6"/>
<path d="M0.200928 358.605L1348.2 358.605L1348.2 357.605L0.200928 357.605L0.200928 358.605ZM0.200928 381.06L1348.2 381.06L1348.2 380.06L0.200928 380.06L0.200928 381.06ZM0.200928 403.516L1348.2 403.516L1348.2 402.516L0.200928 402.516L0.200928 403.516ZM0.200928 425.971L1348.2 425.971L1348.2 424.971L0.200928 424.971L0.200928 425.971ZM0.200928 448.426L1348.2 448.426L1348.2 447.426L0.200928 447.426L0.200928 448.426ZM0.200928 470.882L1348.2 470.882L1348.2 469.882L0.200928 469.882L0.200928 470.882ZM0.200928 493.337L1348.2 493.337L1348.2 492.337L0.200928 492.337L0.200928 493.337ZM0.200928 515.792L1348.2 515.792L1348.2 514.792L0.200928 514.792L0.200928 515.792ZM0.200928 538.247L1348.2 538.247L1348.2 537.247L0.200928 537.247L0.200928 538.247Z" fill="url(#paint2_linear_1_567)" fill-opacity="0.6"/>
<defs>
<linearGradient id="paint0_linear_1_567" x1="0.201033" y1="90.323" x2="1345.42" y2="154.767" gradientUnits="userSpaceOnUse">
<stop stop-color="#A034D9" stop-opacity="0.34"/>
<stop offset="0.514801" stop-color="white" stop-opacity="0"/>
<stop offset="1" stop-color="white" stop-opacity="0"/>
</linearGradient>
<linearGradient id="paint1_linear_1_567" x1="0.201033" y1="269.966" x2="1345.42" y2="334.409" gradientUnits="userSpaceOnUse">
<stop stop-color="#A034D9" stop-opacity="0.34"/>
<stop offset="0.514801" stop-color="white" stop-opacity="0"/>
<stop offset="1" stop-color="white" stop-opacity="0"/>
</linearGradient>
<linearGradient id="paint2_linear_1_567" x1="0.201033" y1="447.924" x2="1345.42" y2="512.368" gradientUnits="userSpaceOnUse">
<stop stop-color="#A034D9" stop-opacity="0.34"/>
<stop offset="0.514801" stop-color="white" stop-opacity="0"/>
<stop offset="1" stop-color="white" stop-opacity="0"/>
</linearGradient>
</defs>
</svg>
