<svg width="1349" height="457" viewBox="0 0 1349 457" fill="none" xmlns="http://www.w3.org/2000/svg">
<path d="M0.906982 1.94342L1348.91 1.94341L1348.91 0.943407L0.906982 0.94342L0.906982 1.94342ZM0.906982 13.3217L1348.91 13.3217L1348.91 12.3217L0.906982 12.3217L0.906982 13.3217ZM0.906982 24.7L1348.91 24.6999L1348.91 23.6999L0.906982 23.7L0.906982 24.7ZM0.906982 36.0782L1348.91 36.0782L1348.91 35.0782L0.906982 35.0782L0.906982 36.0782ZM0.906982 47.4565L1348.91 47.4565L1348.91 46.4565L0.906982 46.4565L0.906982 47.4565ZM0.906982 58.8347L1348.91 58.8347L1348.91 57.8347L0.906982 57.8347L0.906982 58.8347ZM0.906982 70.213L1348.91 70.213L1348.91 69.213L0.906982 69.213L0.906982 70.213ZM0.906982 81.5913L1348.91 81.5913L1348.91 80.5913L0.906982 80.5913L0.906982 81.5913ZM0.906981 92.9695L1348.91 92.9695L1348.91 91.9695L0.906981 91.9695L0.906981 92.9695Z" fill="url(#paint0_linear_1_651)" fill-opacity="0.6"/>
<path d="M0.906982 92.9697L1348.91 92.9697L1348.91 91.9697L0.906982 91.9697L0.906982 92.9697ZM0.906982 104.348L1348.91 104.348L1348.91 103.348L0.906982 103.348L0.906982 104.348ZM0.906982 115.726L1348.91 115.726L1348.91 114.726L0.906982 114.726L0.906982 115.726ZM0.906982 127.105L1348.91 127.105L1348.91 126.105L0.906982 126.105L0.906982 127.105ZM0.906982 138.483L1348.91 138.483L1348.91 137.483L0.906982 137.483L0.906982 138.483ZM0.906982 149.861L1348.91 149.861L1348.91 148.861L0.906982 148.861L0.906982 149.861ZM0.906982 161.239L1348.91 161.239L1348.91 160.239L0.906982 160.239L0.906982 161.239ZM0.906982 172.618L1348.91 172.618L1348.91 171.618L0.906982 171.618L0.906982 172.618ZM0.906981 183.996L1348.91 183.996L1348.91 182.996L0.906981 182.996L0.906981 183.996Z" fill="url(#paint1_linear_1_651)" fill-opacity="0.6"/>
<path d="M0.906982 183.142L1348.91 183.142L1348.91 182.142L0.906982 182.142L0.906982 183.142ZM0.906982 194.52L1348.91 194.52L1348.91 193.52L0.906982 193.52L0.906982 194.52ZM0.906982 205.899L1348.91 205.899L1348.91 204.899L0.906982 204.899L0.906982 205.899ZM0.906982 217.277L1348.91 217.277L1348.91 216.277L0.906982 216.277L0.906982 217.277ZM0.906982 228.655L1348.91 228.655L1348.91 227.655L0.906982 227.655L0.906982 228.655ZM0.906982 240.034L1348.91 240.034L1348.91 239.034L0.906982 239.034L0.906982 240.034ZM0.906982 251.412L1348.91 251.412L1348.91 250.412L0.906982 250.412L0.906982 251.412ZM0.906982 262.79L1348.91 262.79L1348.91 261.79L0.906982 261.79L0.906982 262.79ZM0.906981 274.168L1348.91 274.168L1348.91 273.168L0.906981 273.168L0.906981 274.168Z" fill="url(#paint2_linear_1_651)" fill-opacity="0.6"/>
<path d="M0.906982 274.169L1348.91 274.169L1348.91 273.169L0.906982 273.169L0.906982 274.169ZM0.906982 285.547L1348.91 285.547L1348.91 284.547L0.906982 284.547L0.906982 285.547ZM0.906982 296.925L1348.91 296.925L1348.91 295.925L0.906982 295.925L0.906982 296.925ZM0.906982 308.303L1348.91 308.303L1348.91 307.303L0.906982 307.303L0.906982 308.303ZM0.906982 319.682L1348.91 319.682L1348.91 318.682L0.906982 318.682L0.906982 319.682ZM0.906982 331.06L1348.91 331.06L1348.91 330.06L0.906982 330.06L0.906982 331.06ZM0.906982 342.438L1348.91 342.438L1348.91 341.438L0.906982 341.438L0.906982 342.438ZM0.906982 353.816L1348.91 353.816L1348.91 352.816L0.906982 352.816L0.906982 353.816ZM0.906981 365.195L1348.91 365.195L1348.91 364.195L0.906981 364.195L0.906981 365.195Z" fill="url(#paint3_linear_1_651)" fill-opacity="0.6"/>
<path d="M0.906982 365.474L1348.91 365.474L1348.91 364.474L0.906982 364.474L0.906982 365.474ZM0.906982 376.852L1348.91 376.852L1348.91 375.852L0.906982 375.852L0.906982 376.852ZM0.906982 388.23L1348.91 388.23L1348.91 387.23L0.906982 387.23L0.906982 388.23ZM0.906982 399.609L1348.91 399.609L1348.91 398.609L0.906982 398.609L0.906982 399.609ZM0.906982 410.987L1348.91 410.987L1348.91 409.987L0.906982 409.987L0.906982 410.987ZM0.906982 422.365L1348.91 422.365L1348.91 421.365L0.906982 421.365L0.906982 422.365ZM0.906982 433.743L1348.91 433.743L1348.91 432.743L0.906982 432.743L0.906982 433.743ZM0.906982 445.122L1348.91 445.122L1348.91 444.122L0.906982 444.122L0.906982 445.122ZM0.906981 456.5L1348.91 456.5L1348.91 455.5L0.906981 455.5L0.906981 456.5Z" fill="url(#paint4_linear_1_651)" fill-opacity="0.6"/>
<defs>
<linearGradient id="paint0_linear_1_651" x1="0.907087" y1="46.9554" x2="1337.27" y2="173.3" gradientUnits="userSpaceOnUse">
<stop stop-color="#A034D9" stop-opacity="0.34"/>
<stop offset="0.514801" stop-color="white" stop-opacity="0"/>
<stop offset="1" stop-color="white" stop-opacity="0"/>
</linearGradient>
<linearGradient id="paint1_linear_1_651" x1="0.907087" y1="137.982" x2="1337.27" y2="264.326" gradientUnits="userSpaceOnUse">
<stop stop-color="#A034D9" stop-opacity="0.34"/>
<stop offset="0.514801" stop-color="white" stop-opacity="0"/>
<stop offset="1" stop-color="white" stop-opacity="0"/>
</linearGradient>
<linearGradient id="paint2_linear_1_651" x1="0.907087" y1="228.154" x2="1337.27" y2="354.498" gradientUnits="userSpaceOnUse">
<stop stop-color="#A034D9" stop-opacity="0.34"/>
<stop offset="0.514801" stop-color="white" stop-opacity="0"/>
<stop offset="1" stop-color="white" stop-opacity="0"/>
</linearGradient>
<linearGradient id="paint3_linear_1_651" x1="0.907087" y1="319.181" x2="1337.27" y2="445.525" gradientUnits="userSpaceOnUse">
<stop stop-color="#A034D9" stop-opacity="0.34"/>
<stop offset="0.514801" stop-color="white" stop-opacity="0"/>
<stop offset="1" stop-color="white" stop-opacity="0"/>
</linearGradient>
<linearGradient id="paint4_linear_1_651" x1="0.907087" y1="410.486" x2="1337.27" y2="536.83" gradientUnits="userSpaceOnUse">
<stop stop-color="#A034D9" stop-opacity="0.34"/>
<stop offset="0.514801" stop-color="white" stop-opacity="0"/>
<stop offset="1" stop-color="white" stop-opacity="0"/>
</linearGradient>
</defs>
</svg>
