<svg width="2089" height="1084" viewBox="0 0 2089 1084" fill="none" xmlns="http://www.w3.org/2000/svg">
<g opacity="0.4">
<path d="M577.483 0.542969V638.418L1.00256 758.068" stroke="white" stroke-opacity="0.42" stroke-width="0.25" stroke-linecap="round" stroke-linejoin="round"/>
<path d="M670.852 0.542969V638.418L1.00256 812.193" stroke="white" stroke-opacity="0.42" stroke-width="0.25" stroke-linecap="round" stroke-linejoin="round"/>
<path d="M764.22 0.542969V638.418L1.00195 902.374" stroke="white" stroke-opacity="0.42" stroke-width="0.25" stroke-linecap="round" stroke-linejoin="round"/>
<path d="M857.597 0.542969V638.418L1.44617 1082.43" stroke="white" stroke-opacity="0.42" stroke-width="0.25" stroke-linecap="round" stroke-linejoin="round"/>
<path d="M950.963 0.542969V638.418L522.52 1082.43" stroke="white" stroke-opacity="0.42" stroke-width="0.25" stroke-linecap="round" stroke-linejoin="round"/>
<path d="M1044.33 0.542969V638.418L1043.6 1082.43" stroke="white" stroke-opacity="0.42" stroke-width="0.25" stroke-linecap="round" stroke-linejoin="round"/>
<path d="M1137.71 0.542969V638.418L1564.68 1082.43" stroke="white" stroke-opacity="0.42" stroke-width="0.25" stroke-linecap="round" stroke-linejoin="round"/>
<path d="M1231.08 0.542969V638.418L2085.75 1082.43" stroke="white" stroke-opacity="0.42" stroke-width="0.25" stroke-linecap="round" stroke-linejoin="round"/>
<path d="M1324.46 0.542969V638.418L2088 902.788" stroke="white" stroke-opacity="0.42" stroke-width="0.25" stroke-linecap="round" stroke-linejoin="round"/>
<path d="M1417.82 0.542969V638.418L2088 812.424" stroke="white" stroke-opacity="0.42" stroke-width="0.25" stroke-linecap="round" stroke-linejoin="round"/>
<path d="M1511.19 0.542969V638.418L2088 758.219" stroke="white" stroke-opacity="0.42" stroke-width="0.25" stroke-linecap="round" stroke-linejoin="round"/>
<path d="M1604.57 0.542969V638.418L2088 722.086" stroke="white" stroke-opacity="0.42" stroke-width="0.25" stroke-linecap="round" stroke-linejoin="round"/>
<path d="M1697.94 0.542969V638.418L2088 696.281" stroke="white" stroke-opacity="0.42" stroke-width="0.25" stroke-linecap="round" stroke-linejoin="round"/>
<path d="M1791.31 0.542969V638.418L2088 676.927" stroke="white" stroke-opacity="0.42" stroke-width="0.25" stroke-linecap="round" stroke-linejoin="round"/>
<path d="M1884.68 0.542969V638.418L2088 661.874" stroke="white" stroke-opacity="0.42" stroke-width="0.25" stroke-linecap="round" stroke-linejoin="round"/>
<path d="M1978.05 0.542969V638.418L2088 649.836" stroke="white" stroke-opacity="0.42" stroke-width="0.25" stroke-linecap="round" stroke-linejoin="round"/>
<path d="M2071.42 0.542969V638.418L2088 639.981" stroke="white" stroke-opacity="0.42" stroke-width="0.25" stroke-linecap="round" stroke-linejoin="round"/>
<path d="M1.00195 696.202L390.739 638.418V0.542969" stroke="white" stroke-opacity="0.42" stroke-width="0.25" stroke-linecap="round" stroke-linejoin="round"/>
<path d="M484.108 0.542969V638.418L1.00195 721.982" stroke="white" stroke-opacity="0.42" stroke-width="0.25" stroke-linecap="round" stroke-linejoin="round"/>
<path d="M297.371 0.542969V638.418L1 676.87" stroke="white" stroke-opacity="0.42" stroke-width="0.25" stroke-linecap="round" stroke-linejoin="round"/>
<path d="M203.992 0.542969V638.418L1.00256 661.826" stroke="white" stroke-opacity="0.42" stroke-width="0.25" stroke-linecap="round" stroke-linejoin="round"/>
<path d="M110.626 0.542969V638.418L1.00195 649.794" stroke="white" stroke-opacity="0.42" stroke-width="0.25" stroke-linecap="round" stroke-linejoin="round"/>
<path d="M17.248 0.542969V638.418L1.00195 639.951" stroke="white" stroke-opacity="0.42" stroke-width="0.25" stroke-linecap="round" stroke-linejoin="round"/>
<path d="M1.00195 590.017H2088" stroke="white" stroke-opacity="0.42" stroke-width="0.25" stroke-linecap="round" stroke-linejoin="round"/>
<path d="M1.00195 541.61H2088" stroke="white" stroke-opacity="0.42" stroke-width="0.25" stroke-linecap="round" stroke-linejoin="round"/>
<path d="M1.00195 493.209H2088" stroke="white" stroke-opacity="0.42" stroke-width="0.25" stroke-linecap="round" stroke-linejoin="round"/>
<path d="M1.00195 444.808H2088" stroke="white" stroke-opacity="0.42" stroke-width="0.25" stroke-linecap="round" stroke-linejoin="round"/>
<path d="M1.00195 396.401H2088" stroke="white" stroke-opacity="0.42" stroke-width="0.25" stroke-linecap="round" stroke-linejoin="round"/>
<path d="M1.00195 348H2088" stroke="white" stroke-opacity="0.42" stroke-width="0.25" stroke-linecap="round" stroke-linejoin="round"/>
<path d="M1.00195 299.598H2088" stroke="white" stroke-opacity="0.42" stroke-width="0.25" stroke-linecap="round" stroke-linejoin="round"/>
<path d="M1.00195 251.192H2088" stroke="white" stroke-opacity="0.42" stroke-width="0.25" stroke-linecap="round" stroke-linejoin="round"/>
<path d="M1.00195 202.79H2088" stroke="white" stroke-opacity="0.42" stroke-width="0.25" stroke-linecap="round" stroke-linejoin="round"/>
<path d="M1.00195 154.389H2088" stroke="white" stroke-opacity="0.42" stroke-width="0.25" stroke-linecap="round" stroke-linejoin="round"/>
<path d="M1.00195 105.982H2088" stroke="white" stroke-opacity="0.42" stroke-width="0.25" stroke-linecap="round" stroke-linejoin="round"/>
<path d="M1.00195 57.5808H2088" stroke="white" stroke-opacity="0.42" stroke-width="0.25" stroke-linecap="round" stroke-linejoin="round"/>
<path d="M1.00195 9.17507H2088" stroke="white" stroke-opacity="0.42" stroke-width="0.25" stroke-linecap="round" stroke-linejoin="round"/>
<path d="M2088 851.37H1.00195" stroke="white" stroke-opacity="0.42" stroke-width="0.25" stroke-linecap="round" stroke-linejoin="round"/>
<path d="M2088 813.957H1.00195" stroke="white" stroke-opacity="0.42" stroke-width="0.25" stroke-linecap="round" stroke-linejoin="round"/>
<path d="M2088 784.609H1.00195" stroke="white" stroke-opacity="0.42" stroke-width="0.25" stroke-linecap="round" stroke-linejoin="round"/>
<path d="M2088 900.689H1.00195" stroke="white" stroke-opacity="0.42" stroke-width="0.25" stroke-linecap="round" stroke-linejoin="round"/>
<path d="M2088 760.964H1.00195" stroke="white" stroke-opacity="0.42" stroke-width="0.25" stroke-linecap="round" stroke-linejoin="round"/>
<path d="M2088 741.512H1.00195" stroke="white" stroke-opacity="0.42" stroke-width="0.25" stroke-linecap="round" stroke-linejoin="round"/>
<path d="M2088 642.768H1.00195" stroke="white" stroke-opacity="0.42" stroke-width="0.25" stroke-linecap="round" stroke-linejoin="round"/>
<path d="M2088 638.418H1.00195" stroke="white" stroke-opacity="0.42" stroke-width="0.25" stroke-linecap="round" stroke-linejoin="round"/>
<path d="M2088 652.754H1.00195" stroke="white" stroke-opacity="0.42" stroke-width="0.25" stroke-linecap="round" stroke-linejoin="round"/>
<path d="M2088 647.527H1.00195" stroke="white" stroke-opacity="0.42" stroke-width="0.25" stroke-linecap="round" stroke-linejoin="round"/>
<path d="M2088 699.496H1.00195" stroke="white" stroke-opacity="0.42" stroke-width="0.25" stroke-linecap="round" stroke-linejoin="round"/>
<path d="M2088 725.224H1.00195" stroke="white" stroke-opacity="0.42" stroke-width="0.25" stroke-linecap="round" stroke-linejoin="round"/>
<path d="M2088 968.685H1.00195" stroke="white" stroke-opacity="0.42" stroke-width="0.25" stroke-linecap="round" stroke-linejoin="round"/>
<path d="M2088 664.928H1.00195" stroke="white" stroke-opacity="0.42" stroke-width="0.25" stroke-linecap="round" stroke-linejoin="round"/>
<path d="M2088 658.526H1.00195" stroke="white" stroke-opacity="0.42" stroke-width="0.25" stroke-linecap="round" stroke-linejoin="round"/>
<path d="M2088 689.161H1.00195" stroke="white" stroke-opacity="0.42" stroke-width="0.25" stroke-linecap="round" stroke-linejoin="round"/>
<path d="M2088 680.087H1.00195" stroke="white" stroke-opacity="0.42" stroke-width="0.25" stroke-linecap="round" stroke-linejoin="round"/>
<path d="M2088 672.069H1.00195" stroke="white" stroke-opacity="0.42" stroke-width="0.25" stroke-linecap="round" stroke-linejoin="round"/>
<path d="M2088 711.392H1.00195" stroke="white" stroke-opacity="0.42" stroke-width="0.25" stroke-linecap="round" stroke-linejoin="round"/>
<path d="M2085.75 1082.43H1.44617" stroke="white" stroke-opacity="0.42" stroke-width="0.25" stroke-linecap="round" stroke-linejoin="round"/>
</g>
</svg>
