<svg width="2088" height="288" viewBox="0 0 2088 288" fill="none" xmlns="http://www.w3.org/2000/svg">
<g opacity="0.68">
<path d="M576.859 0.327093L576.859 169.337L0.378206 201.039" stroke="white" stroke-opacity="0.2" stroke-width="0.25" stroke-linecap="round" stroke-linejoin="round"/>
<path d="M670.228 0.327049L670.228 169.337L0.378197 215.38" stroke="white" stroke-opacity="0.2" stroke-width="0.25" stroke-linecap="round" stroke-linejoin="round"/>
<path d="M763.595 0.327258L763.595 169.337L0.377338 239.274" stroke="white" stroke-opacity="0.2" stroke-width="0.25" stroke-linecap="round" stroke-linejoin="round"/>
<path d="M856.972 0.327039L856.972 169.337L0.821448 286.981" stroke="white" stroke-opacity="0.2" stroke-width="0.25" stroke-linecap="round" stroke-linejoin="round"/>
<path d="M950.339 0.327195L950.339 169.337L521.895 286.981" stroke="white" stroke-opacity="0.2" stroke-width="0.25" stroke-linecap="round" stroke-linejoin="round"/>
<path d="M1043.71 0.327392L1043.71 169.337L1042.98 286.982" stroke="white" stroke-opacity="0.2" stroke-width="0.25" stroke-linecap="round" stroke-linejoin="round"/>
<path d="M1137.09 0.327148L1137.09 169.337L1564.05 286.981" stroke="white" stroke-opacity="0.2" stroke-width="0.25" stroke-linecap="round" stroke-linejoin="round"/>
<path d="M1230.45 0.327148L1230.45 169.337L2085.13 286.981" stroke="white" stroke-opacity="0.2" stroke-width="0.25" stroke-linecap="round" stroke-linejoin="round"/>
<path d="M1323.83 0.327393L1323.83 169.337L2087.38 239.384" stroke="white" stroke-opacity="0.2" stroke-width="0.25" stroke-linecap="round" stroke-linejoin="round"/>
<path d="M1417.2 0.327148L1417.2 169.337L2087.37 215.441" stroke="white" stroke-opacity="0.2" stroke-width="0.25" stroke-linecap="round" stroke-linejoin="round"/>
<path d="M1510.57 0.327148L1510.57 169.337L2087.37 201.079" stroke="white" stroke-opacity="0.2" stroke-width="0.25" stroke-linecap="round" stroke-linejoin="round"/>
<path d="M1603.95 0.327026L1603.95 169.337L2087.37 191.505" stroke="white" stroke-opacity="0.2" stroke-width="0.25" stroke-linecap="round" stroke-linejoin="round"/>
<path d="M1697.31 0.327026L1697.31 169.337L2087.37 184.668" stroke="white" stroke-opacity="0.2" stroke-width="0.25" stroke-linecap="round" stroke-linejoin="round"/>
<path d="M1790.68 0.326904L1790.68 169.337L2087.38 179.54" stroke="white" stroke-opacity="0.2" stroke-width="0.25" stroke-linecap="round" stroke-linejoin="round"/>
<path d="M1884.06 0.327026L1884.06 169.337L2087.37 175.552" stroke="white" stroke-opacity="0.2" stroke-width="0.25" stroke-linecap="round" stroke-linejoin="round"/>
<path d="M1977.42 0.326904L1977.42 169.337L2087.37 172.362" stroke="white" stroke-opacity="0.2" stroke-width="0.25" stroke-linecap="round" stroke-linejoin="round"/>
<path d="M2070.79 0.327148L2070.79 169.337L2087.37 169.751" stroke="white" stroke-opacity="0.2" stroke-width="0.25" stroke-linecap="round" stroke-linejoin="round"/>
<path d="M0.37747 184.647L390.114 169.337L390.114 0.32711" stroke="white" stroke-opacity="0.2" stroke-width="0.25" stroke-linecap="round" stroke-linejoin="round"/>
<path d="M483.483 0.327307L483.483 169.337L0.377334 191.478" stroke="white" stroke-opacity="0.2" stroke-width="0.25" stroke-linecap="round" stroke-linejoin="round"/>
<path d="M296.747 0.327397L296.747 169.337L0.375415 179.525" stroke="white" stroke-opacity="0.2" stroke-width="0.25" stroke-linecap="round" stroke-linejoin="round"/>
<path d="M203.368 0.327311L203.368 169.337L0.378026 175.539" stroke="white" stroke-opacity="0.2" stroke-width="0.25" stroke-linecap="round" stroke-linejoin="round"/>
<path d="M110.002 0.327395L110.002 169.337L0.377367 172.351" stroke="white" stroke-opacity="0.2" stroke-width="0.25" stroke-linecap="round" stroke-linejoin="round"/>
<path d="M16.6234 0.327387L16.6233 169.337L0.377307 169.743" stroke="white" stroke-opacity="0.2" stroke-width="0.25" stroke-linecap="round" stroke-linejoin="round"/>
<path d="M0.377441 156.513L2087.37 156.513" stroke="white" stroke-opacity="0.2" stroke-width="0.25" stroke-linecap="round" stroke-linejoin="round"/>
<path d="M0.377441 143.687L2087.37 143.687" stroke="white" stroke-opacity="0.2" stroke-width="0.25" stroke-linecap="round" stroke-linejoin="round"/>
<path d="M0.377197 130.863L2087.37 130.863" stroke="white" stroke-opacity="0.2" stroke-width="0.25" stroke-linecap="round" stroke-linejoin="round"/>
<path d="M0.377319 118.039L2087.37 118.039" stroke="white" stroke-opacity="0.2" stroke-width="0.25" stroke-linecap="round" stroke-linejoin="round"/>
<path d="M0.377319 105.213L2087.37 105.213" stroke="white" stroke-opacity="0.2" stroke-width="0.25" stroke-linecap="round" stroke-linejoin="round"/>
<path d="M0.377319 92.3887L2087.37 92.3884" stroke="white" stroke-opacity="0.2" stroke-width="0.25" stroke-linecap="round" stroke-linejoin="round"/>
<path d="M0.377319 79.5646L2087.37 79.5642" stroke="white" stroke-opacity="0.2" stroke-width="0.25" stroke-linecap="round" stroke-linejoin="round"/>
<path d="M0.377197 66.739L2087.37 66.7386" stroke="white" stroke-opacity="0.2" stroke-width="0.25" stroke-linecap="round" stroke-linejoin="round"/>
<path d="M0.377564 53.9143L2087.37 53.9141" stroke="white" stroke-opacity="0.2" stroke-width="0.25" stroke-linecap="round" stroke-linejoin="round"/>
<path d="M0.377197 41.0902L2087.37 41.0899" stroke="white" stroke-opacity="0.2" stroke-width="0.25" stroke-linecap="round" stroke-linejoin="round"/>
<path d="M0.377197 28.2646L2087.37 28.2642" stroke="white" stroke-opacity="0.2" stroke-width="0.25" stroke-linecap="round" stroke-linejoin="round"/>
<path d="M0.377441 15.44L2087.37 15.4397" stroke="white" stroke-opacity="0.2" stroke-width="0.25" stroke-linecap="round" stroke-linejoin="round"/>
<path d="M0.377075 2.61476L2087.37 2.61451" stroke="white" stroke-opacity="0.2" stroke-width="0.25" stroke-linecap="round" stroke-linejoin="round"/>
<path d="M2087.37 225.76L0.377319 225.76" stroke="white" stroke-opacity="0.2" stroke-width="0.25" stroke-linecap="round" stroke-linejoin="round"/>
<path d="M2087.37 215.847L0.377319 215.847" stroke="white" stroke-opacity="0.2" stroke-width="0.25" stroke-linecap="round" stroke-linejoin="round"/>
<path d="M2087.37 208.071L0.377319 208.072" stroke="white" stroke-opacity="0.2" stroke-width="0.25" stroke-linecap="round" stroke-linejoin="round"/>
<path d="M2087.37 238.828L0.377319 238.828" stroke="white" stroke-opacity="0.2" stroke-width="0.25" stroke-linecap="round" stroke-linejoin="round"/>
<path d="M2087.37 201.806L0.377319 201.807" stroke="white" stroke-opacity="0.2" stroke-width="0.25" stroke-linecap="round" stroke-linejoin="round"/>
<path d="M2087.37 196.652L0.377319 196.653" stroke="white" stroke-opacity="0.2" stroke-width="0.25" stroke-linecap="round" stroke-linejoin="round"/>
<path d="M2087.37 170.489L0.377319 170.49" stroke="white" stroke-opacity="0.2" stroke-width="0.25" stroke-linecap="round" stroke-linejoin="round"/>
<path d="M2087.37 169.337L0.377319 169.337" stroke="white" stroke-opacity="0.2" stroke-width="0.25" stroke-linecap="round" stroke-linejoin="round"/>
<path d="M2087.37 173.135L0.377441 173.136" stroke="white" stroke-opacity="0.2" stroke-width="0.25" stroke-linecap="round" stroke-linejoin="round"/>
<path d="M2087.37 171.75L0.377564 171.751" stroke="white" stroke-opacity="0.2" stroke-width="0.25" stroke-linecap="round" stroke-linejoin="round"/>
<path d="M2087.37 185.52L0.377319 185.52" stroke="white" stroke-opacity="0.2" stroke-width="0.25" stroke-linecap="round" stroke-linejoin="round"/>
<path d="M2087.37 192.337L0.377319 192.337" stroke="white" stroke-opacity="0.2" stroke-width="0.25" stroke-linecap="round" stroke-linejoin="round"/>
<path d="M2087.37 256.843L0.377319 256.844" stroke="white" stroke-opacity="0.2" stroke-width="0.25" stroke-linecap="round" stroke-linejoin="round"/>
<path d="M2087.37 176.361L0.377319 176.361" stroke="white" stroke-opacity="0.2" stroke-width="0.25" stroke-linecap="round" stroke-linejoin="round"/>
<path d="M2087.37 174.664L0.377319 174.665" stroke="white" stroke-opacity="0.2" stroke-width="0.25" stroke-linecap="round" stroke-linejoin="round"/>
<path d="M2087.37 182.781L0.377075 182.782" stroke="white" stroke-opacity="0.2" stroke-width="0.25" stroke-linecap="round" stroke-linejoin="round"/>
<path d="M2087.37 180.377L0.377319 180.378" stroke="white" stroke-opacity="0.2" stroke-width="0.25" stroke-linecap="round" stroke-linejoin="round"/>
<path d="M2087.37 178.253L0.377441 178.253" stroke="white" stroke-opacity="0.2" stroke-width="0.25" stroke-linecap="round" stroke-linejoin="round"/>
<path d="M2087.37 188.672L0.377319 188.672" stroke="white" stroke-opacity="0.2" stroke-width="0.25" stroke-linecap="round" stroke-linejoin="round"/>
<path d="M2085.13 286.982L0.821411 286.982" stroke="white" stroke-opacity="0.2" stroke-width="0.25" stroke-linecap="round" stroke-linejoin="round"/>
</g>
</svg>
