<svg width="646" height="739" viewBox="0 0 646 739" fill="none" xmlns="http://www.w3.org/2000/svg">
<path d="M322.5 -2.18557e-08L322.5 1348L323.5 1348L323.5 2.18557e-08L322.5 -2.18557e-08ZM309.041 -6.10155e-07L309.041 1348L310.041 1348L310.041 -5.66444e-07L309.041 -6.10155e-07ZM295.583 -1.19845e-06L295.583 1348L296.583 1348L296.583 -1.15474e-06L295.583 -1.19845e-06ZM282.124 -1.78675e-06L282.124 1348L283.124 1348L283.124 -1.74304e-06L282.124 -1.78675e-06ZM268.665 -2.37505e-06L268.665 1348L269.665 1348L269.665 -2.33134e-06L268.665 -2.37505e-06ZM255.206 -2.96335e-06L255.206 1348L256.206 1348L256.206 -2.91964e-06L255.206 -2.96335e-06ZM241.748 -3.55165e-06L241.748 1348L242.748 1348L242.748 -3.50794e-06L241.748 -3.55165e-06ZM228.289 -4.13995e-06L228.289 1348L229.289 1348L229.289 -4.09624e-06L228.289 -4.13995e-06ZM214.83 -4.72825e-06L214.83 1348L215.83 1348L215.83 -4.68454e-06L214.83 -4.72825e-06Z" fill="url(#paint0_linear_5037_231)" fill-opacity="0.6"/>
<path d="M214.83 -2.18557e-08L214.83 1348L215.83 1348L215.83 2.18557e-08L214.83 -2.18557e-08ZM201.371 -6.10155e-07L201.371 1348L202.371 1348L202.371 -5.66444e-07L201.371 -6.10155e-07ZM187.913 -1.19845e-06L187.913 1348L188.913 1348L188.913 -1.15474e-06L187.913 -1.19845e-06ZM174.454 -1.78675e-06L174.454 1348L175.454 1348L175.454 -1.74304e-06L174.454 -1.78675e-06ZM160.995 -2.37505e-06L160.995 1348L161.995 1348L161.995 -2.33134e-06L160.995 -2.37505e-06ZM147.536 -2.96335e-06L147.536 1348L148.536 1348L148.536 -2.91964e-06L147.536 -2.96335e-06ZM134.078 -3.55165e-06L134.078 1348L135.078 1348L135.078 -3.50794e-06L134.078 -3.55165e-06ZM120.619 -4.13995e-06L120.619 1348L121.619 1348L121.619 -4.09624e-06L120.619 -4.13995e-06ZM107.16 -4.72825e-06L107.16 1348L108.16 1348L108.16 -4.68454e-06L107.16 -4.72825e-06Z" fill="url(#paint1_linear_5037_231)" fill-opacity="0.6"/>
<path d="M108.17 -2.18557e-08L108.17 1348L109.17 1348L109.17 2.18557e-08L108.17 -2.18557e-08ZM94.711 -6.10155e-07L94.711 1348L95.711 1348L95.711 -5.66444e-07L94.711 -6.10155e-07ZM81.2523 -1.19845e-06L81.2522 1348L82.2522 1348L82.2523 -1.15474e-06L81.2523 -1.19845e-06ZM67.7936 -1.78675e-06L67.7935 1348L68.7935 1348L68.7936 -1.74304e-06L67.7936 -1.78675e-06ZM54.3349 -2.37505e-06L54.3348 1348L55.3348 1348L55.3349 -2.33134e-06L54.3349 -2.37505e-06ZM40.8762 -2.96335e-06L40.8761 1348L41.8761 1348L41.8762 -2.91964e-06L40.8762 -2.96335e-06ZM27.4174 -3.55165e-06L27.4174 1348L28.4174 1348L28.4174 -3.50794e-06L27.4174 -3.55165e-06ZM13.9587 -4.13995e-06L13.9587 1348L14.9587 1348L14.9587 -4.09624e-06L13.9587 -4.13995e-06ZM0.499992 -4.72825e-06L0.499933 1348L1.49993 1348L1.49999 -4.68454e-06L0.499992 -4.72825e-06Z" fill="url(#paint2_linear_5037_231)" fill-opacity="0.6"/>
<path d="M644.5 -2.18557e-08L644.5 1348L645.5 1348L645.5 2.18557e-08L644.5 -2.18557e-08ZM631.041 -6.10155e-07L631.041 1348L632.041 1348L632.041 -5.66444e-07L631.041 -6.10155e-07ZM617.583 -1.19845e-06L617.583 1348L618.583 1348L618.583 -1.15474e-06L617.583 -1.19845e-06ZM604.124 -1.78675e-06L604.124 1348L605.124 1348L605.124 -1.74304e-06L604.124 -1.78675e-06ZM590.665 -2.37505e-06L590.665 1348L591.665 1348L591.665 -2.33134e-06L590.665 -2.37505e-06ZM577.206 -2.96335e-06L577.206 1348L578.206 1348L578.206 -2.91964e-06L577.206 -2.96335e-06ZM563.748 -3.55165e-06L563.748 1348L564.748 1348L564.748 -3.50794e-06L563.748 -3.55165e-06ZM550.289 -4.13995e-06L550.289 1348L551.289 1348L551.289 -4.09624e-06L550.289 -4.13995e-06ZM536.83 -4.72825e-06L536.83 1348L537.83 1348L537.83 -4.68454e-06L536.83 -4.72825e-06Z" fill="url(#paint3_linear_5037_231)" fill-opacity="0.6"/>
<path d="M536.83 -2.18557e-08L536.83 1348L537.83 1348L537.83 2.18557e-08L536.83 -2.18557e-08ZM523.371 -6.10155e-07L523.371 1348L524.371 1348L524.371 -5.66444e-07L523.371 -6.10155e-07ZM509.913 -1.19845e-06L509.913 1348L510.913 1348L510.913 -1.15474e-06L509.913 -1.19845e-06ZM496.454 -1.78675e-06L496.454 1348L497.454 1348L497.454 -1.74304e-06L496.454 -1.78675e-06ZM482.995 -2.37505e-06L482.995 1348L483.995 1348L483.995 -2.33134e-06L482.995 -2.37505e-06ZM469.536 -2.96335e-06L469.536 1348L470.536 1348L470.536 -2.91964e-06L469.536 -2.96335e-06ZM456.078 -3.55165e-06L456.078 1348L457.078 1348L457.078 -3.50794e-06L456.078 -3.55165e-06ZM442.619 -4.13995e-06L442.619 1348L443.619 1348L443.619 -4.09624e-06L442.619 -4.13995e-06ZM429.16 -4.72825e-06L429.16 1348L430.16 1348L430.16 -4.68454e-06L429.16 -4.72825e-06Z" fill="url(#paint4_linear_5037_231)" fill-opacity="0.6"/>
<path d="M430.17 -2.18557e-08L430.17 1348L431.17 1348L431.17 2.18557e-08L430.17 -2.18557e-08ZM416.711 -6.10155e-07L416.711 1348L417.711 1348L417.711 -5.66444e-07L416.711 -6.10155e-07ZM403.252 -1.19845e-06L403.252 1348L404.252 1348L404.252 -1.15474e-06L403.252 -1.19845e-06ZM389.794 -1.78675e-06L389.794 1348L390.794 1348L390.794 -1.74304e-06L389.794 -1.78675e-06ZM376.335 -2.37505e-06L376.335 1348L377.335 1348L377.335 -2.33134e-06L376.335 -2.37505e-06ZM362.876 -2.96335e-06L362.876 1348L363.876 1348L363.876 -2.91964e-06L362.876 -2.96335e-06ZM349.417 -3.55165e-06L349.417 1348L350.417 1348L350.417 -3.50794e-06L349.417 -3.55165e-06ZM335.959 -4.13995e-06L335.959 1348L336.959 1348L336.959 -4.09624e-06L335.959 -4.13995e-06ZM322.5 -4.72825e-06L322.5 1348L323.5 1348L323.5 -4.68454e-06L322.5 -4.72825e-06Z" fill="url(#paint5_linear_5037_231)" fill-opacity="0.6"/>
<defs>
<linearGradient id="paint0_linear_5037_231" x1="269.166" y1="0.000102707" x2="162.082" y2="1339.75" gradientUnits="userSpaceOnUse">
<stop stop-color="#A034D9" stop-opacity="0.34"/>
<stop offset="0.514801" stop-color="white" stop-opacity="0"/>
<stop offset="1" stop-color="white" stop-opacity="0"/>
</linearGradient>
<linearGradient id="paint1_linear_5037_231" x1="161.497" y1="0.000102707" x2="54.4119" y2="1339.75" gradientUnits="userSpaceOnUse">
<stop stop-color="#A034D9" stop-opacity="0.34"/>
<stop offset="0.514801" stop-color="white" stop-opacity="0"/>
<stop offset="1" stop-color="white" stop-opacity="0"/>
</linearGradient>
<linearGradient id="paint2_linear_5037_231" x1="54.8362" y1="0.000102707" x2="-52.2484" y2="1339.75" gradientUnits="userSpaceOnUse">
<stop stop-color="#A034D9" stop-opacity="0.34"/>
<stop offset="0.514801" stop-color="white" stop-opacity="0"/>
<stop offset="1" stop-color="white" stop-opacity="0"/>
</linearGradient>
<linearGradient id="paint3_linear_5037_231" x1="591.166" y1="0.000102707" x2="484.082" y2="1339.75" gradientUnits="userSpaceOnUse">
<stop stop-color="#A034D9" stop-opacity="0.34"/>
<stop offset="0.514801" stop-color="white" stop-opacity="0"/>
<stop offset="1" stop-color="white" stop-opacity="0"/>
</linearGradient>
<linearGradient id="paint4_linear_5037_231" x1="483.497" y1="0.000102707" x2="376.412" y2="1339.75" gradientUnits="userSpaceOnUse">
<stop stop-color="#A034D9" stop-opacity="0.34"/>
<stop offset="0.514801" stop-color="white" stop-opacity="0"/>
<stop offset="1" stop-color="white" stop-opacity="0"/>
</linearGradient>
<linearGradient id="paint5_linear_5037_231" x1="376.836" y1="0.000102707" x2="269.752" y2="1339.75" gradientUnits="userSpaceOnUse">
<stop stop-color="#A034D9" stop-opacity="0.34"/>
<stop offset="0.514801" stop-color="white" stop-opacity="0"/>
<stop offset="1" stop-color="white" stop-opacity="0"/>
</linearGradient>
</defs>
</svg>
