<svg width="784" height="645" viewBox="0 0 784 645" fill="none" xmlns="http://www.w3.org/2000/svg">
<g style="mix-blend-mode:color-dodge" filter="url(#filter0_b_5005_229)">
<path d="M18.9688 18.5684L31.8127 5.25358C26.4709 0.100739 18.5668 -1.36088 11.7356 1.54099C4.9044 4.44285 0.46875 11.1464 0.46875 18.5684H18.9688ZM522.969 504.746L510.125 518.061C515.467 523.214 523.371 524.675 530.202 521.773C537.033 518.871 541.469 512.168 541.469 504.746H522.969ZM522.969 203.779H541.469C541.469 198.757 539.427 193.951 535.813 190.464L522.969 203.779ZM330.969 18.5684L343.813 5.25358C338.471 0.100739 330.567 -1.36088 323.735 1.54099C316.904 4.44285 312.469 11.1464 312.469 18.5684L330.969 18.5684ZM330.969 504.746V523.246C341.186 523.246 349.469 514.963 349.469 504.746H330.969ZM18.9688 504.746H0.46875C0.46875 514.963 8.75148 523.246 18.9688 523.246L18.9688 504.746ZM6.12481 31.8831L510.125 518.061L535.813 491.431L31.8127 5.25358L6.12481 31.8831ZM541.469 504.746V203.779H504.469V504.746H541.469ZM535.813 190.464L343.813 5.25358L318.125 31.8831L510.125 217.094L535.813 190.464ZM312.469 18.5684V504.746H349.469V18.5684H312.469ZM330.969 486.246H18.9688V523.246H330.969V486.246ZM37.4688 504.746V18.5684H0.46875V504.746H37.4688Z" fill="white" fill-opacity="0.01"/>
</g>
<g style="mix-blend-mode:color-dodge" filter="url(#filter1_b_5005_229)">
<path d="M18.9692 18.5684L31.8132 5.25358C26.4714 0.100739 18.5673 -1.36088 11.7361 1.54099C4.90489 4.44285 0.469238 11.1464 0.469238 18.5684H18.9692ZM522.969 504.746L510.125 518.061C515.467 523.214 523.371 524.675 530.202 521.773C537.034 518.871 541.469 512.168 541.469 504.746H522.969ZM522.969 203.779H541.469C541.469 198.757 539.428 193.951 535.813 190.464L522.969 203.779ZM330.969 18.5684L343.813 5.25358C338.471 0.100739 330.567 -1.36088 323.736 1.54099C316.905 4.44285 312.469 11.1464 312.469 18.5684L330.969 18.5684ZM330.969 504.746V523.246C341.186 523.246 349.469 514.963 349.469 504.746H330.969ZM18.9692 504.746H0.469238C0.469238 514.963 8.75197 523.246 18.9692 523.246L18.9692 504.746ZM6.1253 31.8831L510.125 518.061L535.813 491.431L31.8132 5.25358L6.1253 31.8831ZM541.469 504.746V203.779H504.469V504.746H541.469ZM535.813 190.464L343.813 5.25358L318.125 31.8831L510.125 217.094L535.813 190.464ZM312.469 18.5684V504.746H349.469V18.5684H312.469ZM330.969 486.246H18.9692V523.246H330.969V486.246ZM37.4692 504.746V18.5684H0.469238V504.746H37.4692Z" fill="white" fill-opacity="0.01"/>
</g>
<g style="mix-blend-mode:color-dodge" filter="url(#filter2_b_5005_229)">
<path d="M62.9692 18.5684L75.8132 5.25358C70.4714 0.100739 62.5673 -1.36088 55.7361 1.54099C48.9049 4.44285 44.4692 11.1464 44.4692 18.5684H62.9692ZM566.969 504.746L554.125 518.061C559.467 523.214 567.371 524.675 574.202 521.773C581.034 518.871 585.469 512.168 585.469 504.746H566.969ZM566.969 203.779H585.469C585.469 198.757 583.428 193.951 579.813 190.464L566.969 203.779ZM374.969 18.5684L387.813 5.25358C382.471 0.100739 374.567 -1.36088 367.736 1.54099C360.905 4.44285 356.469 11.1464 356.469 18.5684L374.969 18.5684ZM374.969 504.746V523.246C385.186 523.246 393.469 514.963 393.469 504.746H374.969ZM62.9692 504.746H44.4692C44.4692 514.963 52.752 523.246 62.9692 523.246L62.9692 504.746ZM50.1253 31.8831L554.125 518.061L579.813 491.431L75.8132 5.25358L50.1253 31.8831ZM585.469 504.746V203.779H548.469V504.746H585.469ZM579.813 190.464L387.813 5.25358L362.125 31.8831L554.125 217.094L579.813 190.464ZM356.469 18.5684V504.746H393.469V18.5684H356.469ZM374.969 486.246H62.9692V523.246H374.969V486.246ZM81.4692 504.746V18.5684H44.4692V504.746H81.4692Z" fill="white" fill-opacity="0.01"/>
</g>
<path d="M28.4477 589.004L28.4471 590.764L24.3071 590.763L24.303 603.003L22.463 603.002L22.4671 590.762L18.3471 590.76L18.3477 589L28.4477 589.004ZM36.7278 601.748C35.7008 602.761 34.4539 603.267 32.9873 603.266C31.5206 603.266 30.2741 602.758 29.2478 601.745C28.2348 600.731 27.7285 599.484 27.729 598.004C27.7295 596.524 28.2366 595.278 29.2503 594.265C30.2773 593.252 31.5241 592.746 32.9908 592.746C34.4575 592.747 35.704 593.254 36.7303 594.268C37.7566 595.282 38.2695 596.528 38.269 598.008C38.2685 599.488 37.7548 600.735 36.7278 601.748ZM32.9878 601.566C33.9878 601.567 34.8279 601.227 35.5082 600.547C36.1884 599.868 36.5287 599.021 36.529 598.008C36.5294 596.994 36.1897 596.148 35.5099 595.467C34.8301 594.787 33.9902 594.447 32.9902 594.446C32.0036 594.446 31.1701 594.785 30.4899 595.465C29.8097 596.145 29.4694 596.991 29.469 598.005C29.4687 599.018 29.8084 599.865 30.4882 600.545C31.1679 601.225 32.0012 601.566 32.9878 601.566ZM48.7786 603.013L46.6186 603.012L42.0602 598.27L42.0586 603.01L40.3186 603.009L40.3233 589.009L42.0633 589.01L42.0605 597.43L46.382 593.012L48.622 593.013L43.8403 597.851L48.7786 603.013ZM50.7002 598.814C50.8732 599.707 51.2796 600.4 51.9195 600.894C52.5726 601.388 53.3725 601.635 54.3192 601.635C55.6392 601.636 56.5994 601.149 57.1997 600.176L58.6794 601.017C57.7056 602.523 56.2387 603.276 54.2787 603.275C52.692 603.274 51.3988 602.781 50.3992 601.793C49.4128 600.793 48.9199 599.533 48.9204 598.013C48.9209 596.506 49.408 595.253 50.3817 594.253C51.3554 593.254 52.6155 592.754 54.1622 592.755C55.6289 592.756 56.822 593.276 57.7417 594.316C58.6747 595.344 59.1409 596.584 59.1404 598.037C59.1403 598.29 59.1203 598.55 59.0802 598.817L50.7002 598.814ZM54.1617 594.395C53.2283 594.395 52.4549 594.661 51.8414 595.194C51.2279 595.714 50.8476 596.414 50.7007 597.294L57.3807 597.296C57.2343 596.35 56.8612 595.629 56.2614 595.136C55.6616 594.642 54.9617 594.395 54.1617 594.395ZM66.1224 592.76C67.2957 592.76 68.2356 593.134 68.942 593.881C69.6484 594.615 70.0014 595.615 70.001 596.882L69.9989 603.022L68.2589 603.021L68.2609 596.981C68.2612 596.168 68.0414 595.541 67.6016 595.101C67.1617 594.647 66.5551 594.42 65.7818 594.42C64.9151 594.419 64.215 594.693 63.6815 595.239C63.148 595.772 62.8811 596.599 62.8807 597.719L62.8789 603.019L61.1389 603.018L61.1423 593.018L62.8823 593.019L62.8818 594.459C63.5888 593.326 64.669 592.759 66.1224 592.76ZM78.9304 595.725C78.9303 596.112 79.1235 596.425 79.5101 596.666C79.8967 596.892 80.3633 597.079 80.9099 597.226C81.4565 597.36 82.0032 597.52 82.5498 597.707C83.0964 597.88 83.5629 598.187 83.9495 598.627C84.336 599.054 84.5291 599.608 84.5289 600.288C84.5286 601.194 84.175 601.921 83.4682 602.467C82.7746 603.014 81.8812 603.286 80.7879 603.286C79.8145 603.286 78.9813 603.072 78.2881 602.645C77.5949 602.218 77.1018 601.651 76.8087 600.944L78.309 600.085C78.4688 600.565 78.7687 600.945 79.2086 601.225C79.6485 601.506 80.1751 601.646 80.7884 601.646C81.3618 601.646 81.8351 601.54 82.2085 601.327C82.582 601.1 82.7687 600.754 82.7689 600.287C82.769 599.9 82.5758 599.593 82.1892 599.367C81.8026 599.126 81.336 598.94 80.7894 598.806C80.2428 598.659 79.6962 598.492 79.1496 598.305C78.603 598.118 78.1364 597.812 77.7499 597.385C77.3633 596.958 77.1702 596.411 77.1704 595.745C77.1707 594.878 77.5043 594.165 78.1711 593.605C78.8513 593.045 79.6981 592.766 80.7114 592.766C81.5248 592.766 82.2447 592.953 82.8712 593.327C83.5111 593.687 83.9909 594.194 84.3107 594.848L82.8504 595.667C82.4907 594.813 81.7775 594.386 80.7109 594.386C80.2175 594.386 79.7975 594.506 79.4508 594.745C79.104 594.972 78.9306 595.299 78.9304 595.725ZM93.0637 593.031L94.9237 593.032L90.8401 603.65C90.4131 604.783 89.8128 605.643 89.0392 606.229C88.279 606.829 87.3989 607.095 86.399 607.028L86.3995 605.408C87.6261 605.502 88.5264 604.823 89.1002 603.369L89.2803 602.99L84.9237 593.028L86.7837 593.029L90.181 600.87L93.0637 593.031ZM107.177 592.777C108.297 592.777 109.203 593.144 109.896 593.878C110.589 594.598 110.936 595.579 110.935 596.819L110.933 603.039L109.193 603.038L109.195 596.878C109.196 596.104 108.996 595.504 108.596 595.078C108.196 594.651 107.663 594.437 106.996 594.437C106.25 594.437 105.649 594.69 105.196 595.196C104.756 595.689 104.535 596.449 104.535 597.476L104.533 603.036L102.793 603.035L102.795 596.875C102.796 596.102 102.602 595.502 102.216 595.075C101.843 594.648 101.33 594.435 100.676 594.434C99.9428 594.434 99.3294 594.687 98.8359 595.194C98.3558 595.7 98.1155 596.46 98.1152 597.473L98.1133 603.033L96.3733 603.033L96.3766 593.033L98.1166 593.033L98.1162 594.373C98.7966 593.307 99.7901 592.774 101.097 592.774C102.443 592.775 103.423 593.342 104.036 594.476C104.73 593.343 105.777 592.776 107.177 592.777ZM118.869 592.782C120.269 592.782 121.463 593.296 122.449 594.323C123.435 595.337 123.928 596.577 123.928 598.044C123.927 599.511 123.433 600.757 122.446 601.783C121.459 602.796 120.266 603.302 118.866 603.302C117.213 603.301 115.953 602.641 115.087 601.32L115.086 603.04L113.346 603.04L113.351 589.04L115.091 589.04L115.089 594.76C115.956 593.441 117.216 592.781 118.869 592.782ZM118.646 601.622C119.646 601.622 120.487 601.283 121.167 600.603C121.847 599.91 122.187 599.057 122.188 598.043C122.188 597.03 121.848 596.183 121.168 595.503C120.489 594.809 119.649 594.462 118.649 594.462C117.635 594.461 116.789 594.808 116.108 595.501C115.428 596.18 115.088 597.027 115.088 598.04C115.087 599.054 115.427 599.907 116.107 600.601C116.787 601.281 117.633 601.621 118.646 601.622ZM134.443 601.788C133.416 602.801 132.169 603.307 130.702 603.307C129.235 603.306 127.989 602.799 126.963 601.785C125.95 600.771 125.443 599.525 125.444 598.045C125.444 596.565 125.951 595.318 126.965 594.305C127.992 593.292 129.239 592.786 130.706 592.787C132.172 592.787 133.419 593.295 134.445 594.308C135.471 595.322 135.984 596.569 135.984 598.049C135.983 599.529 135.47 600.775 134.443 601.788ZM130.703 601.607C131.703 601.607 132.543 601.268 133.223 600.588C133.903 599.908 134.244 599.062 134.244 598.048C134.244 597.035 133.904 596.188 133.225 595.508C132.545 594.828 131.705 594.487 130.705 594.487C129.718 594.486 128.885 594.826 128.205 595.506C127.524 596.185 127.184 597.032 127.184 598.045C127.184 599.059 127.523 599.905 128.203 600.586C128.883 601.266 129.716 601.606 130.703 601.607ZM138.033 603.05L138.038 588.45L139.778 588.451L139.773 603.051L138.033 603.05ZM143.531 595.412C143.171 595.412 142.864 595.285 142.611 595.032C142.357 594.778 142.231 594.472 142.231 594.112C142.231 593.752 142.358 593.445 142.611 593.192C142.865 592.938 143.171 592.812 143.531 592.812C143.905 592.812 144.211 592.939 144.451 593.192C144.705 593.446 144.831 593.753 144.831 594.113C144.831 594.473 144.704 594.779 144.451 595.032C144.211 595.286 143.904 595.412 143.531 595.412ZM143.528 603.272C143.168 603.272 142.861 603.145 142.608 602.892C142.355 602.638 142.228 602.332 142.228 601.972C142.228 601.612 142.355 601.305 142.609 601.052C142.862 600.798 143.169 600.672 143.529 600.672C143.902 600.672 144.209 600.799 144.449 601.052C144.702 601.306 144.828 601.613 144.828 601.973C144.828 602.333 144.701 602.639 144.448 602.892C144.208 603.146 143.901 603.272 143.528 603.272ZM28.2734 631.264C28.2731 632.358 27.9128 633.257 27.1925 633.964C26.4723 634.67 25.5388 635.09 24.3921 635.223L24.3915 637.003L23.1315 637.002L23.1321 635.242C22.0388 635.162 21.1056 634.861 20.3324 634.341C19.5726 633.821 19.0195 633.12 18.6731 632.24L20.2734 631.321C20.7263 632.561 21.6794 633.262 23.1327 633.422L23.1344 628.582C22.5344 628.369 22.0478 628.175 21.6745 628.002C21.3146 627.815 20.9347 627.568 20.5348 627.261C20.1349 626.954 19.835 626.581 19.6352 626.141C19.4487 625.687 19.3555 625.167 19.3557 624.581C19.3561 623.501 19.7164 622.621 20.4366 621.941C21.1568 621.261 22.057 620.868 23.137 620.762L23.1376 619.002L24.3976 619.003L24.397 620.783C25.1969 620.89 25.9102 621.17 26.5367 621.624C27.1632 622.077 27.6497 622.691 27.9961 623.464L26.4358 624.344C26.0494 623.37 25.3696 622.79 24.3964 622.603L24.3948 627.203C25.0081 627.43 25.4947 627.63 25.8546 627.803C26.2146 627.977 26.6078 628.224 27.0344 628.544C27.4609 628.851 27.7741 629.231 27.974 629.684C28.1738 630.138 28.2737 630.664 28.2734 631.264ZM21.1957 624.581C21.1955 625.088 21.3487 625.501 21.6553 625.822C21.9618 626.142 22.4551 626.442 23.135 626.722L23.1364 622.582C22.5497 622.662 22.0763 622.882 21.7162 623.242C21.3694 623.588 21.1959 624.035 21.1957 624.581ZM24.3927 633.383C25.0328 633.29 25.5262 633.056 25.873 632.683C26.2331 632.297 26.4133 631.83 26.4134 631.283C26.4136 630.737 26.2471 630.303 25.9139 629.983C25.594 629.65 25.0874 629.336 24.3942 629.043L24.3927 633.383ZM37.0482 635.268C34.9282 635.267 33.1751 634.566 31.7889 633.166C30.416 631.765 29.73 630.045 29.7306 628.005C29.7313 625.965 30.4186 624.245 31.7924 622.846C33.1795 621.446 34.9331 620.747 37.0531 620.748C38.3331 620.748 39.5063 621.056 40.5728 621.669C41.6526 622.283 42.4923 623.11 43.0919 624.15L41.4716 625.09C41.0719 624.316 40.4721 623.703 39.6722 623.249C38.8857 622.782 38.0125 622.548 37.0525 622.548C35.4391 622.547 34.119 623.067 33.092 624.106C32.0783 625.146 31.5712 626.446 31.5706 628.006C31.5701 629.552 32.0764 630.846 33.0893 631.886C34.1156 632.927 35.4355 633.447 37.0488 633.448C38.0088 633.448 38.8822 633.222 39.669 632.769C40.4692 632.303 41.0694 631.69 41.4697 630.93L43.0893 631.85C42.5023 632.89 41.6687 633.723 40.5885 634.349C39.5083 634.962 38.3282 635.268 37.0482 635.268ZM58.2996 621.017L58.2948 635.017L56.4548 635.016L56.4585 624.076L51.876 631.694L51.636 631.694L47.0585 624.092L47.0548 635.012L45.1948 635.011L45.1996 621.011L47.2996 621.012L51.7571 628.414L56.1996 621.016L58.2996 621.017ZM63.1492 633.259L69.6492 633.261L69.6486 635.021L61.2886 635.018L61.2933 621.018L69.5533 621.021L69.5527 622.781L63.1527 622.779L63.1513 627.079L69.0513 627.081L69.0507 628.821L63.1507 628.819L63.1492 633.259ZM80.8588 621.026L80.8582 622.786L76.7182 622.784L76.7141 635.024L74.8741 635.024L74.8782 622.784L70.7582 622.782L70.7588 621.022L80.8588 621.026ZM90.8992 635.03L89.7603 631.89L83.4603 631.887L82.3192 635.027L80.3392 635.026L85.5639 621.028L87.6639 621.029L92.8792 635.031L90.8992 635.03ZM84.1009 630.147L89.1209 630.149L86.6032 623.248L84.1009 630.147Z" fill="white" fill-opacity="0.7"/>
<circle cx="36.4688" cy="532.5" r="24" stroke="#56FFEB"/>
<circle cx="36.4691" cy="532.5" r="18" stroke="url(#paint0_linear_5005_229)"/>
<ellipse cx="36.9686" cy="532" rx="6" ry="6" fill="#56FFEB"/>
<path d="M181.052 87.263C178.932 87.2622 177.179 86.5616 175.793 85.1611C174.42 83.7605 173.734 82.0403 173.735 80.0003C173.736 77.9603 174.423 76.2405 175.797 74.8411C177.184 73.4416 178.938 72.7422 181.058 72.743C182.338 72.7435 183.511 73.0506 184.577 73.6643C185.657 74.2781 186.497 75.1051 187.096 76.1453L185.476 77.0847C185.076 76.3112 184.477 75.6976 183.677 75.244C182.89 74.777 182.017 74.5434 181.057 74.543C179.444 74.5424 178.123 75.0619 177.096 76.1015C176.083 77.1412 175.576 78.441 175.575 80.001C175.574 81.5476 176.081 82.8412 177.094 83.8815C178.12 84.9219 179.44 85.4424 181.053 85.443C182.013 85.4434 182.886 85.217 183.673 84.764C184.473 84.2976 185.074 83.6845 185.474 82.9247L187.094 83.8453C186.506 84.8851 185.673 85.7181 184.593 86.3443C183.512 86.9573 182.332 87.2635 181.052 87.263ZM189.962 75.1863C189.629 75.1862 189.349 75.0728 189.122 74.846C188.895 74.6193 188.782 74.3459 188.782 74.0259C188.782 73.7059 188.896 73.4326 189.123 73.206C189.349 72.9661 189.629 72.8462 189.963 72.8463C190.283 72.8465 190.556 72.9666 190.783 73.2067C191.009 73.4334 191.122 73.7068 191.122 74.0268C191.122 74.3468 191.009 74.6201 190.782 74.8467C190.555 75.0732 190.282 75.1865 189.962 75.1863ZM189.078 87.006L189.081 77.006L190.821 77.0067L190.818 87.0067L189.078 87.006ZM195.215 78.6883C195.789 77.4485 196.829 76.8289 198.336 76.8295L198.335 78.6495C197.482 78.6092 196.748 78.8356 196.135 79.3287C195.521 79.8218 195.214 80.615 195.214 81.7083L195.212 87.0083L193.472 87.0077L193.476 77.0077L195.216 77.0083L195.215 78.6883ZM204.188 87.2717C202.681 87.2711 201.428 86.7706 200.428 85.7703C199.429 84.7566 198.929 83.503 198.93 82.0097C198.93 80.5164 199.431 79.2699 200.431 78.2703C201.431 77.2573 202.685 76.7511 204.192 76.7517C205.178 76.752 206.065 76.9924 206.851 77.4727C207.638 77.9396 208.224 78.5732 208.611 79.3733L207.15 80.2128C206.897 79.6793 206.504 79.2525 205.971 78.9323C205.451 78.6121 204.858 78.4519 204.191 78.4517C203.191 78.4513 202.351 78.791 201.67 79.4707C201.004 80.1505 200.67 80.997 200.67 82.0104C200.669 83.0104 201.002 83.8505 201.669 84.5307C202.348 85.211 203.188 85.5513 204.188 85.5517C204.855 85.5519 205.455 85.3988 205.988 85.0923C206.522 84.7725 206.929 84.346 207.209 83.8128L208.689 84.6733C208.262 85.4599 207.648 86.093 206.848 86.5727C206.048 87.039 205.161 87.272 204.188 87.2717ZM217.329 77.0166L219.069 77.0172L219.065 87.0172L217.325 87.0166L217.326 85.5766C216.619 86.7096 215.538 87.2759 214.085 87.2754C212.912 87.2749 211.972 86.9079 211.265 86.1743C210.559 85.4274 210.206 84.4206 210.207 83.1539L210.209 77.0139L211.949 77.0146L211.947 83.0546C211.946 83.8679 212.166 84.5013 212.606 84.9548C213.046 85.395 213.652 85.6152 214.426 85.6155C215.292 85.6158 215.992 85.3494 216.526 84.8163C217.06 84.2698 217.327 83.4366 217.327 82.3166L217.329 77.0166ZM221.714 87.0182L221.72 72.4182L223.46 72.4189L223.454 87.0189L221.714 87.0182ZM234.393 77.023L236.133 77.0236L236.129 87.0236L234.389 87.023L234.389 85.303C233.522 86.6226 232.262 87.2822 230.609 87.2815C229.209 87.281 228.016 86.7739 227.029 85.7602C226.043 84.7332 225.55 83.4863 225.551 82.0197C225.551 80.553 226.045 79.3132 227.032 78.3002C228.019 77.2739 229.213 76.761 230.613 76.7615C232.266 76.7622 233.526 77.4226 234.392 78.743L234.393 77.023ZM230.829 85.6016C231.843 85.602 232.689 85.2623 233.37 84.5826C234.05 83.8895 234.39 83.0363 234.391 82.023C234.391 81.0096 234.051 80.1628 233.372 79.4826C232.692 78.789 231.845 78.442 230.832 78.4416C229.832 78.4413 228.992 78.7876 228.312 79.4807C227.631 80.1604 227.291 81.007 227.291 82.0203C227.29 83.0336 227.63 83.8871 228.31 84.5807C228.989 85.2609 229.829 85.6013 230.829 85.6016ZM244.208 78.7066L241.548 78.7056L241.546 84.1256C241.546 84.619 241.639 84.9723 241.826 85.1857C242.026 85.3858 242.326 85.4926 242.726 85.5061C243.126 85.5062 243.619 85.4931 244.206 85.4666L244.205 87.0266C242.685 87.2261 241.572 87.1056 240.865 86.6654C240.159 86.2118 239.806 85.365 239.806 84.125L239.808 78.705L237.828 78.7042L237.829 77.0242L239.809 77.025L239.81 74.745L241.55 74.2256L241.549 77.0256L244.209 77.0266L244.208 78.7066ZM247.149 75.2077C246.816 75.2076 246.536 75.0942 246.31 74.8674C246.083 74.6407 245.97 74.3673 245.97 74.0473C245.97 73.7273 246.083 73.454 246.31 73.2274C246.537 72.9875 246.817 72.8676 247.15 72.8677C247.47 72.8678 247.744 72.9879 247.97 73.228C248.197 73.4548 248.31 73.7282 248.31 74.0482C248.31 74.3682 248.196 74.6415 247.97 74.868C247.743 75.0946 247.469 75.2078 247.149 75.2077ZM246.265 87.0274L246.269 77.0274L248.009 77.028L248.005 87.028L246.265 87.0274ZM255.643 76.7709C256.817 76.7713 257.757 77.145 258.463 77.892C259.169 78.6256 259.522 79.6257 259.522 80.8924L259.52 87.0324L257.78 87.0317L257.782 80.9917C257.782 80.1784 257.562 79.5516 257.123 79.1115C256.683 78.658 256.076 78.4311 255.303 78.4308C254.436 78.4305 253.736 78.7035 253.202 79.25C252.669 79.7831 252.402 80.6097 252.402 81.7297L252.4 87.0297L250.66 87.029L250.663 77.029L252.403 77.0297L252.403 78.4697C253.11 77.3366 254.19 76.7704 255.643 76.7709ZM270.252 77.0364L271.972 77.037L271.969 86.617C271.968 88.097 271.468 89.2435 270.467 90.0564C269.467 90.8827 268.267 91.2956 266.867 91.2951C265.747 91.2947 264.78 91.081 263.967 90.654C263.154 90.2404 262.541 89.6401 262.128 88.8533L263.648 87.9939C264.194 89.1141 265.281 89.6745 266.908 89.6751C267.948 89.6755 268.761 89.4025 269.348 88.856C269.948 88.3096 270.248 87.563 270.249 86.6164L270.249 85.1964C269.369 86.5294 268.115 87.1956 266.489 87.195C265.062 87.1944 263.855 86.6873 262.869 85.6736C261.883 84.6599 261.39 83.4264 261.39 81.973C261.391 80.5197 261.885 79.2932 262.872 78.2936C263.859 77.2806 265.066 76.7744 266.492 76.775C268.132 76.7756 269.386 77.436 270.252 78.7564L270.252 77.0364ZM264.15 84.5141C264.829 85.1943 265.676 85.5347 266.689 85.535C267.702 85.5354 268.549 85.1957 269.23 84.516C269.91 83.8362 270.25 82.9897 270.25 81.9764C270.251 80.9764 269.911 80.1362 269.231 79.456C268.552 78.7757 267.705 78.4354 266.692 78.435C265.678 78.4347 264.832 78.7743 264.151 79.4541C263.471 80.1338 263.131 80.9737 263.13 81.9737C263.13 82.987 263.47 83.8338 264.15 84.5141ZM284.305 87.3016C282.998 87.3011 281.878 86.994 280.945 86.3804C280.025 85.7667 279.379 84.9264 279.006 83.8596L280.606 82.9402C281.152 84.6338 282.399 85.4809 284.345 85.4816C285.305 85.482 286.039 85.2889 286.546 84.9025C287.052 84.5026 287.306 83.9761 287.306 83.3227C287.306 82.6561 287.053 82.156 286.547 81.8225C286.04 81.4889 285.194 81.1353 284.007 80.7615C283.421 80.5746 282.974 80.4278 282.667 80.321C282.361 80.2009 281.974 80.0274 281.508 79.8006C281.054 79.5604 280.714 79.3203 280.488 79.0802C280.261 78.8268 280.055 78.5 279.868 78.1C279.695 77.6999 279.609 77.2465 279.609 76.7399C279.609 75.5265 280.036 74.5667 280.89 73.8603C281.743 73.1407 282.784 72.781 284.01 72.7815C285.117 72.7819 286.077 73.0623 286.89 73.6226C287.716 74.1829 288.336 74.9231 288.749 75.8433L287.189 76.7427C286.589 75.3025 285.53 74.5821 284.01 74.5815C283.25 74.5812 282.636 74.7677 282.169 75.1408C281.702 75.514 281.469 76.0206 281.469 76.6606C281.469 77.2739 281.688 77.7406 282.128 78.0608C282.568 78.381 283.328 78.7146 284.408 79.0617C284.794 79.1818 285.068 79.2686 285.228 79.322C285.388 79.3754 285.634 79.4688 285.968 79.6022C286.314 79.7357 286.568 79.8425 286.728 79.9225C286.887 80.0026 287.101 80.116 287.367 80.2628C287.647 80.4095 287.854 80.5496 287.987 80.683C288.121 80.8164 288.274 80.9831 288.447 81.1832C288.634 81.3699 288.767 81.5633 288.847 81.7633C288.927 81.9633 288.993 82.1967 289.047 82.4634C289.113 82.7167 289.146 82.9901 289.146 83.2834C289.146 84.5101 288.699 85.4899 287.805 86.2229C286.912 86.9426 285.745 87.3022 284.305 87.3016ZM298.071 77.0468L299.811 77.0474L299.807 87.0474L298.067 87.0468L298.068 85.6068C297.361 86.7398 296.281 87.3061 294.827 87.3055C293.654 87.3051 292.714 86.9381 292.008 86.2045C291.301 85.4576 290.948 84.4508 290.949 83.1841L290.951 77.0441L292.691 77.0448L292.689 83.0847C292.689 83.8981 292.908 84.5315 293.348 84.985C293.788 85.4252 294.395 85.6454 295.168 85.6457C296.035 85.646 296.735 85.3796 297.268 84.8465C297.802 84.3 298.069 83.4668 298.069 82.3468L298.071 77.0468ZM307.98 76.7905C309.38 76.791 310.573 77.3048 311.56 78.3318C312.546 79.3455 313.039 80.5857 313.038 82.0524C313.038 83.519 312.544 84.7655 311.557 85.7918C310.57 86.8048 309.376 87.311 307.976 87.3105C306.323 87.3098 305.063 86.6494 304.197 85.3291L304.195 91.0491L302.455 91.0484L302.46 77.0484L304.2 77.0491L304.2 78.7691C305.067 77.4494 306.327 76.7898 307.98 76.7905ZM307.757 85.6304C308.757 85.6308 309.597 85.2911 310.277 84.6113C310.958 83.9182 311.298 83.065 311.298 82.0517C311.299 81.0384 310.959 80.1916 310.279 79.5113C309.599 78.8177 308.76 78.4708 307.76 78.4704C306.746 78.47 305.899 78.8164 305.219 79.5094C304.539 80.1892 304.199 81.0357 304.198 82.0491C304.198 83.0624 304.538 83.9158 305.217 84.6094C305.897 85.2897 306.744 85.63 307.757 85.6304ZM320.636 76.7952C322.036 76.7957 323.23 77.3095 324.216 78.3365C325.202 79.3502 325.695 80.5904 325.695 82.0571C325.694 83.5238 325.2 84.7702 324.213 85.7965C323.226 86.8095 322.033 87.3157 320.633 87.3152C318.979 87.3146 317.719 86.6541 316.853 85.3338L316.851 91.0538L315.111 91.0531L315.116 77.0531L316.856 77.0538L316.856 78.7738C317.723 77.4541 318.983 76.7946 320.636 76.7952ZM320.413 85.6351C321.413 85.6355 322.253 85.2958 322.934 84.6161C323.614 83.923 323.954 83.0698 323.955 82.0564C323.955 81.0431 323.615 80.1963 322.935 79.5161C322.256 78.8225 321.416 78.4755 320.416 78.4751C319.403 78.4747 318.556 78.8211 317.875 79.5142C317.195 80.1939 316.855 81.0405 316.855 82.0538C316.854 83.0671 317.194 83.9206 317.874 84.6142C318.553 85.2944 319.4 85.6347 320.413 85.6351ZM327.769 87.0579L327.774 72.4579L329.514 72.4585L329.509 87.0585L327.769 87.0579ZM339.147 77.0621L341.007 77.0628L336.923 87.6813C336.496 88.8145 335.896 89.6742 335.122 90.2606C334.362 90.8603 333.482 91.1267 332.482 91.0596L332.483 89.4396C333.709 89.5334 334.609 88.8538 335.183 87.4006L335.363 87.0207L331.007 77.0591L332.867 77.0598L336.264 84.901L339.147 77.0621ZM343.559 79.4238C343.199 79.4236 342.893 79.2968 342.639 79.0434C342.386 78.79 342.26 78.4833 342.26 78.1233C342.26 77.7633 342.387 77.4567 342.64 77.2034C342.894 76.9502 343.2 76.8236 343.56 76.8238C343.934 76.8239 344.24 76.9507 344.48 77.2041C344.733 77.4575 344.86 77.7643 344.86 78.1243C344.86 78.4843 344.733 78.7909 344.479 79.0441C344.239 79.2974 343.933 79.4239 343.559 79.4238ZM343.556 87.2838C343.196 87.2836 342.89 87.1568 342.636 86.9034C342.383 86.65 342.257 86.3433 342.257 85.9833C342.257 85.6233 342.384 85.3167 342.637 85.0634C342.891 84.8102 343.197 84.6836 343.557 84.6838C343.931 84.6839 344.237 84.8107 344.477 85.0641C344.73 85.3175 344.857 85.6243 344.857 85.9843C344.857 86.3443 344.73 86.6509 344.476 86.9041C344.236 87.1574 343.93 87.2839 343.556 87.2838ZM176.926 105.001L178.526 105.002L178.52 119.002L176.68 119.001L176.685 107.001L173.705 107.88L173.245 106.28L176.926 105.001ZM184.01 116.944L182.708 121.804L181.208 121.803L182.01 116.943L184.01 116.944ZM194.823 117.288C193.876 118.608 192.549 119.267 190.842 119.267C189.136 119.266 187.809 118.606 186.863 117.285C185.917 115.965 185.444 114.205 185.445 112.005C185.446 109.805 185.92 108.045 186.867 106.725C187.814 105.406 189.141 104.746 190.848 104.747C192.554 104.747 193.881 105.408 194.827 106.728C195.773 108.049 196.246 109.809 196.245 112.009C196.244 114.209 195.77 115.969 194.823 117.288ZM188.224 116.026C188.837 116.973 189.71 117.446 190.843 117.447C191.976 117.447 192.85 116.974 193.464 116.028C194.091 115.081 194.404 113.741 194.405 112.008C194.406 110.275 194.093 108.935 193.467 107.988C192.854 107.027 191.98 106.547 190.847 106.547C189.714 106.546 188.84 107.019 188.227 107.966C187.613 108.912 187.306 110.259 187.305 112.005C187.304 113.739 187.611 115.079 188.224 116.026ZM207.421 117.293C206.474 118.613 205.147 119.272 203.44 119.271C201.733 119.271 200.407 118.61 199.461 117.29C198.515 115.97 198.042 114.209 198.043 112.009C198.044 109.809 198.518 108.05 199.465 106.73C200.412 105.41 201.739 104.751 203.445 104.751C205.152 104.752 206.479 105.413 207.425 106.733C208.371 108.053 208.844 109.813 208.843 112.013C208.842 114.213 208.368 115.973 207.421 117.293ZM200.821 116.03C201.434 116.977 202.307 117.451 203.441 117.451C204.574 117.452 205.448 116.979 206.061 116.032C206.688 115.086 207.002 113.746 207.003 112.013C207.003 110.279 206.691 108.939 206.064 107.992C205.451 107.032 204.578 106.552 203.445 106.551C202.311 106.551 201.438 107.024 200.824 107.97C200.211 108.917 199.903 110.263 199.903 112.01C199.902 113.743 200.208 115.084 200.821 116.03ZM220.018 117.298C219.071 118.617 217.744 119.277 216.038 119.276C214.331 119.275 213.005 118.615 212.058 117.295C211.112 115.974 210.64 114.214 210.64 112.014C210.641 109.814 211.115 108.054 212.062 106.735C213.009 105.415 214.336 104.755 216.043 104.756C217.75 104.757 219.076 105.417 220.022 106.738C220.969 108.058 221.441 109.818 221.44 112.018C221.44 114.218 220.966 115.978 220.018 117.298ZM213.419 116.035C214.032 116.982 214.905 117.456 216.038 117.456C217.172 117.457 218.045 116.984 218.659 116.037C219.286 115.091 219.6 113.751 219.6 112.017C219.601 110.284 219.288 108.944 218.662 107.997C218.049 107.037 217.176 106.557 216.042 106.556C214.909 106.556 214.036 107.029 213.422 107.975C212.808 108.922 212.501 110.268 212.5 112.015C212.5 113.748 212.806 115.088 213.419 116.035ZM225.651 116.96L224.349 121.819L222.849 121.819L223.651 116.959L225.651 116.96ZM236.464 117.304C235.517 118.623 234.19 119.283 232.483 119.282C230.776 119.282 229.45 118.621 228.504 117.301C227.558 115.98 227.085 114.22 227.086 112.02C227.086 109.82 227.56 108.06 228.508 106.741C229.455 105.421 230.782 104.762 232.488 104.762C234.195 104.763 235.521 105.423 236.468 106.744C237.414 108.064 237.886 109.824 237.886 112.024C237.885 114.224 237.411 115.984 236.464 117.304ZM229.864 116.041C230.477 116.988 231.35 117.462 232.484 117.462C233.617 117.463 234.49 116.99 235.104 116.043C235.731 115.097 236.045 113.757 236.046 112.024C236.046 110.29 235.733 108.95 235.107 108.003C234.494 107.043 233.621 106.563 232.488 106.562C231.354 106.562 230.481 107.035 229.867 107.981C229.253 108.928 228.946 110.274 228.946 112.021C228.945 113.754 229.251 115.094 229.864 116.041ZM249.061 117.308C248.114 118.628 246.787 119.288 245.081 119.287C243.374 119.286 242.048 118.626 241.101 117.305C240.155 115.985 239.683 114.225 239.683 112.025C239.684 109.825 240.158 108.065 241.105 106.745C242.052 105.426 243.379 104.766 245.086 104.767C246.793 104.768 248.119 105.428 249.065 106.748C250.011 108.069 250.484 109.829 250.483 112.029C250.483 114.229 250.009 115.989 249.061 117.308ZM242.462 116.046C243.075 116.993 243.948 117.467 245.081 117.467C246.215 117.467 247.088 116.994 247.702 116.048C248.329 115.102 248.643 113.762 248.643 112.028C248.644 110.295 248.331 108.955 247.705 108.008C247.092 107.048 246.219 106.567 245.085 106.567C243.952 106.567 243.079 107.04 242.465 107.986C241.851 108.932 241.544 110.279 241.543 112.026C241.543 113.759 241.849 115.099 242.462 116.046ZM261.659 117.313C260.712 118.633 259.385 119.292 257.678 119.292C255.972 119.291 254.645 118.631 253.699 117.31C252.753 115.99 252.28 114.23 252.281 112.03C252.282 109.83 252.756 108.07 253.703 106.75C254.65 105.431 255.977 104.771 257.684 104.772C259.39 104.772 260.717 105.433 261.663 106.753C262.609 108.074 263.082 109.834 263.081 112.034C263.08 114.234 262.606 115.994 261.659 117.313ZM255.059 116.051C255.672 116.998 256.546 117.471 257.679 117.472C258.812 117.472 259.686 116.999 260.299 116.053C260.926 115.106 261.24 113.766 261.241 112.033C261.242 110.3 260.929 108.96 260.302 108.013C259.69 107.052 258.816 106.572 257.683 106.572C256.55 106.571 255.676 107.044 255.062 107.991C254.449 108.937 254.142 110.284 254.141 112.03C254.14 113.764 254.446 115.104 255.059 116.051ZM267.291 116.975L265.99 121.835L264.49 121.834L265.291 116.975L267.291 116.975ZM278.104 117.319C277.157 118.639 275.83 119.298 274.124 119.298C272.417 119.297 271.09 118.637 270.144 117.316C269.198 115.996 268.725 114.236 268.726 112.036C268.727 109.836 269.201 108.076 270.148 106.756C271.095 105.437 272.422 104.777 274.129 104.778C275.836 104.778 277.162 105.439 278.108 106.759C279.054 108.08 279.527 109.84 279.526 112.04C279.525 114.24 279.051 116 278.104 117.319ZM271.505 116.057C272.118 117.004 272.991 117.477 274.124 117.478C275.258 117.478 276.131 117.005 276.745 116.059C277.372 115.112 277.686 113.772 277.686 112.039C277.687 110.306 277.374 108.966 276.748 108.019C276.135 107.059 275.262 106.578 274.128 106.578C272.995 106.577 272.121 107.05 271.508 107.997C270.894 108.943 270.587 110.29 270.586 112.036C270.586 113.77 270.892 115.11 271.505 116.057ZM290.702 117.324C289.755 118.644 288.428 119.303 286.721 119.303C285.015 119.302 283.688 118.641 282.742 117.321C281.796 116.001 281.323 114.241 281.324 112.041C281.325 109.841 281.799 108.081 282.746 106.761C283.693 105.441 285.02 104.782 286.727 104.783C288.433 104.783 289.76 105.444 290.706 106.764C291.652 108.084 292.125 109.845 292.124 112.045C292.123 114.245 291.649 116.004 290.702 117.324ZM284.102 116.062C284.715 117.008 285.589 117.482 286.722 117.483C287.855 117.483 288.729 117.01 289.342 116.064C289.969 115.117 290.283 113.777 290.284 112.044C290.285 110.311 289.972 108.97 289.345 108.024C288.732 107.063 287.859 106.583 286.726 106.583C285.593 106.582 284.719 107.055 284.105 108.002C283.492 108.948 283.185 110.295 283.184 112.041C283.183 113.775 283.489 115.115 284.102 116.062ZM303.3 117.329C302.352 118.648 301.026 119.308 299.319 119.307C297.612 119.307 296.286 118.646 295.34 117.326C294.393 116.005 293.921 114.245 293.922 112.045C293.922 109.845 294.396 108.085 295.344 106.766C296.291 105.446 297.618 104.787 299.324 104.787C301.031 104.788 302.357 105.448 303.304 106.769C304.25 108.089 304.722 109.849 304.722 112.049C304.721 114.249 304.247 116.009 303.3 117.329ZM296.7 116.066C297.313 117.013 298.186 117.487 299.32 117.487C300.453 117.488 301.326 117.015 301.94 116.068C302.567 115.122 302.881 113.782 302.882 112.049C302.882 110.315 302.569 108.975 301.943 108.028C301.33 107.068 300.457 106.588 299.324 106.587C298.19 106.587 297.317 107.06 296.703 108.006C296.089 108.953 295.782 110.299 295.782 112.046C295.781 113.779 296.087 115.119 296.7 116.066Z" fill="white" fill-opacity="0.7"/>
<circle cx="138.469" cy="88.5" r="24" stroke="#9D71FF"/>
<circle cx="138.469" cy="88.5" r="18" stroke="url(#paint1_linear_5005_229)"/>
<circle cx="138.969" cy="88" r="6" fill="#9D71FF"/>
<path d="M566.578 197.005L566.572 211.005L564.732 211.005L564.736 200.065L560.154 207.683L559.914 207.683L555.336 200.081L555.332 211.001L553.472 211.001L553.478 197.001L555.578 197.001L560.035 204.403L564.478 197.005L566.578 197.005ZM577.67 201.01L579.41 201.01L579.406 211.01L577.666 211.01L577.667 209.29C576.8 210.609 575.539 211.269 573.886 211.268C572.486 211.268 571.293 210.761 570.307 209.747C569.32 208.72 568.827 207.473 568.828 206.006C568.829 204.54 569.322 203.3 570.309 202.287C571.296 201.261 572.49 200.748 573.89 200.748C575.543 200.749 576.803 201.409 577.669 202.73L577.67 201.01ZM574.107 209.588C575.12 209.589 575.967 209.249 576.647 208.569C577.327 207.876 577.668 207.023 577.668 206.01C577.668 204.996 577.329 204.149 576.649 203.469C575.969 202.776 575.123 202.429 574.109 202.428C573.109 202.428 572.269 202.774 571.589 203.467C570.909 204.147 570.568 204.994 570.568 206.007C570.568 207.02 570.907 207.874 571.587 208.567C572.267 209.248 573.107 209.588 574.107 209.588ZM590.722 211.014L588.682 211.014L585.884 207.233L583.062 211.012L581.022 211.011L584.864 205.872L581.246 201.011L583.306 201.012L585.885 204.493L588.466 201.014L590.506 201.014L586.904 205.853L590.722 211.014ZM593.22 199.195C592.886 199.195 592.606 199.082 592.38 198.855C592.153 198.628 592.04 198.355 592.04 198.035C592.04 197.715 592.154 197.442 592.38 197.215C592.607 196.975 592.887 196.855 593.221 196.855C593.541 196.856 593.814 196.976 594.04 197.216C594.267 197.442 594.38 197.716 594.38 198.036C594.38 198.356 594.267 198.629 594.04 198.856C593.813 199.082 593.54 199.196 593.22 199.195ZM592.335 211.015L592.339 201.015L594.079 201.016L594.075 211.016L592.335 211.015ZM607.534 200.761C608.654 200.761 609.56 201.128 610.253 201.862C610.946 202.582 611.293 203.562 611.292 204.802L611.29 211.022L609.55 211.022L609.552 204.862C609.552 204.088 609.353 203.488 608.953 203.061C608.553 202.634 608.02 202.421 607.353 202.421C606.606 202.42 606.006 202.674 605.553 203.18C605.113 203.673 604.892 204.433 604.892 205.46L604.89 211.02L603.15 211.019L603.152 204.859C603.152 204.086 602.959 203.486 602.573 203.059C602.2 202.632 601.686 202.419 601.033 202.418C600.3 202.418 599.686 202.671 599.193 203.178C598.713 203.684 598.472 204.444 598.472 205.457L598.47 211.017L596.73 211.017L596.734 201.017L598.474 201.017L598.473 202.357C599.153 201.291 600.147 200.758 601.454 200.758C602.8 200.759 603.78 201.326 604.393 202.46C605.087 201.327 606.134 200.76 607.534 200.761ZM620.606 201.026L622.346 201.026L622.343 211.026L620.603 211.026L620.603 209.586C619.896 210.719 618.816 211.285 617.362 211.284C616.189 211.284 615.249 210.917 614.543 210.183C613.836 209.436 613.483 208.43 613.484 207.163L613.486 201.023L615.226 201.024L615.224 207.064C615.224 207.877 615.443 208.51 615.883 208.964C616.323 209.404 616.93 209.624 617.703 209.625C618.57 209.625 619.27 209.358 619.803 208.825C620.337 208.279 620.604 207.446 620.604 206.326L620.606 201.026ZM635.795 200.771C636.915 200.772 637.822 201.139 638.515 201.872C639.208 202.593 639.554 203.573 639.554 204.813L639.552 211.033L637.812 211.032L637.814 204.872C637.814 204.099 637.614 203.499 637.215 203.072C636.815 202.645 636.281 202.432 635.615 202.431C634.868 202.431 634.268 202.684 633.815 203.191C633.374 203.684 633.154 204.444 633.154 205.47L633.152 211.03L631.412 211.03L631.414 204.87C631.414 204.096 631.221 203.496 630.835 203.069C630.461 202.643 629.948 202.429 629.295 202.429C628.561 202.429 627.948 202.682 627.455 203.188C626.974 203.695 626.734 204.455 626.734 205.468L626.732 211.028L624.992 211.027L624.995 201.027L626.735 201.028L626.735 202.368C627.415 201.302 628.409 200.769 629.715 200.769C631.062 200.77 632.042 201.337 632.655 202.47C633.349 201.337 634.395 200.771 635.795 200.771ZM648.467 203.736C648.467 204.123 648.66 204.436 649.047 204.676C649.433 204.903 649.9 205.09 650.446 205.237C650.993 205.37 651.54 205.531 652.086 205.717C652.633 205.891 653.099 206.198 653.486 206.638C653.872 207.065 654.066 207.618 654.065 208.298C654.065 209.205 653.711 209.931 653.004 210.478C652.311 211.024 651.417 211.297 650.324 211.297C649.351 211.296 648.518 211.083 647.824 210.656C647.131 210.229 646.638 209.662 646.345 208.955L647.845 208.096C648.005 208.576 648.305 208.956 648.745 209.236C649.185 209.516 649.711 209.657 650.325 209.657C650.898 209.657 651.371 209.55 651.745 209.337C652.118 209.111 652.305 208.764 652.305 208.298C652.305 207.911 652.112 207.604 651.726 207.377C651.339 207.137 650.872 206.95 650.326 206.817C649.779 206.67 649.233 206.503 648.686 206.316C648.139 206.129 647.673 205.822 647.286 205.396C646.9 204.969 646.707 204.422 646.707 203.755C646.707 202.889 647.041 202.176 647.708 201.616C648.388 201.056 649.235 200.776 650.248 200.777C651.061 200.777 651.781 200.964 652.408 201.338C653.048 201.698 653.528 202.205 653.847 202.858L652.387 203.678C652.027 202.824 651.314 202.397 650.247 202.397C649.754 202.397 649.334 202.516 648.987 202.756C648.641 202.983 648.467 203.309 648.467 203.736ZM662.93 201.041L664.67 201.042L664.667 211.042L662.927 211.041L662.927 209.601C662.22 210.735 661.14 211.301 659.687 211.3C658.513 211.3 657.573 210.933 656.867 210.199C656.161 209.452 655.808 208.445 655.808 207.179L655.81 201.039L657.55 201.039L657.548 207.079C657.548 207.893 657.768 208.526 658.207 208.98C658.647 209.42 659.254 209.64 660.027 209.64C660.894 209.641 661.594 209.374 662.128 208.841C662.661 208.295 662.928 207.461 662.928 206.341L662.93 201.041ZM672.84 200.785C674.24 200.786 675.433 201.299 676.419 202.327C677.405 203.34 677.898 204.58 677.898 206.047C677.897 207.514 677.403 208.76 676.416 209.787C675.429 210.799 674.236 211.306 672.836 211.305C671.182 211.305 669.923 210.644 669.056 209.324L669.054 215.044L667.314 215.043L667.32 201.043L669.06 201.044L669.059 202.764C669.926 201.444 671.186 200.785 672.84 200.785ZM672.616 209.625C673.616 209.625 674.456 209.286 675.137 208.606C675.817 207.913 676.157 207.06 676.158 206.046C676.158 205.033 675.818 204.186 675.139 203.506C674.459 202.812 673.619 202.465 672.619 202.465C671.606 202.465 670.759 202.811 670.079 203.504C669.398 204.184 669.058 205.03 669.058 206.044C669.057 207.057 669.397 207.911 670.077 208.604C670.756 209.284 671.603 209.625 672.616 209.625ZM685.496 200.79C686.896 200.79 688.089 201.304 689.075 202.331C690.062 203.345 690.554 204.585 690.554 206.052C690.553 207.518 690.06 208.765 689.073 209.791C688.085 210.804 686.892 211.31 685.492 211.31C683.839 211.309 682.579 210.649 681.713 209.328L681.711 215.048L679.971 215.048L679.976 201.048L681.716 201.048L681.715 202.768C682.582 201.449 683.843 200.789 685.496 200.79ZM685.273 209.63C686.273 209.63 687.113 209.291 687.793 208.611C688.473 207.918 688.814 207.064 688.814 206.051C688.814 205.038 688.475 204.191 687.795 203.511C687.115 202.817 686.275 202.47 685.275 202.47C684.262 202.469 683.415 202.816 682.735 203.509C682.055 204.189 681.714 205.035 681.714 206.048C681.714 207.062 682.053 207.915 682.733 208.609C683.413 209.289 684.259 209.629 685.273 209.63ZM692.628 211.053L692.634 196.453L694.374 196.453L694.368 211.053L692.628 211.053ZM704.007 201.057L705.867 201.058L701.783 211.676C701.355 212.809 700.755 213.669 699.982 214.255C699.221 214.855 698.341 215.121 697.341 215.054L697.342 213.434C698.569 213.528 699.469 212.848 700.043 211.395L700.223 211.015L695.867 201.054L697.727 201.054L701.124 208.896L704.007 201.057ZM708.419 203.418C708.059 203.418 707.752 203.292 707.499 203.038C707.246 202.785 707.119 202.478 707.119 202.118C707.119 201.758 707.246 201.451 707.499 201.198C707.753 200.945 708.06 200.818 708.42 200.818C708.793 200.819 709.1 200.945 709.339 201.199C709.593 201.452 709.719 201.759 709.719 202.119C709.719 202.479 709.592 202.786 709.339 203.039C709.099 203.292 708.792 203.419 708.419 203.418ZM708.416 211.278C708.056 211.278 707.749 211.152 707.496 210.898C707.243 210.645 707.116 210.338 707.116 209.978C707.116 209.618 707.243 209.311 707.497 209.058C707.75 208.805 708.057 208.678 708.417 208.678C708.79 208.679 709.097 208.805 709.337 209.059C709.59 209.312 709.716 209.619 709.716 209.979C709.716 210.339 709.589 210.646 709.336 210.899C709.096 211.152 708.789 211.279 708.416 211.278ZM555.926 229.001L557.526 229.002L557.52 243.002L555.68 243.001L555.685 231.001L552.705 231.88L552.245 230.28L555.926 229.001ZM563.01 240.944L561.708 245.804L560.208 245.803L561.01 240.943L563.01 240.944ZM573.823 241.288C572.876 242.608 571.549 243.267 569.842 243.267C568.136 243.266 566.809 242.606 565.863 241.285C564.917 239.965 564.444 238.205 564.445 236.005C564.446 233.805 564.92 232.045 565.867 230.725C566.814 229.406 568.141 228.746 569.848 228.747C571.554 228.747 572.881 229.408 573.827 230.728C574.773 232.049 575.246 233.809 575.245 236.009C575.244 238.209 574.77 239.969 573.823 241.288ZM567.224 240.026C567.837 240.973 568.71 241.446 569.843 241.447C570.976 241.447 571.85 240.974 572.464 240.028C573.091 239.081 573.404 237.741 573.405 236.008C573.406 234.275 573.093 232.935 572.467 231.988C571.854 231.027 570.98 230.547 569.847 230.547C568.714 230.546 567.84 231.019 567.227 231.966C566.613 232.912 566.306 234.259 566.305 236.005C566.304 237.739 566.611 239.079 567.224 240.026ZM586.421 241.293C585.474 242.613 584.147 243.272 582.44 243.271C580.733 243.271 579.407 242.61 578.461 241.29C577.515 239.97 577.042 238.209 577.043 236.009C577.044 233.809 577.518 232.05 578.465 230.73C579.412 229.41 580.739 228.751 582.445 228.751C584.152 228.752 585.479 229.413 586.425 230.733C587.371 232.053 587.844 233.813 587.843 236.013C587.842 238.213 587.368 239.973 586.421 241.293ZM579.821 240.03C580.434 240.977 581.307 241.451 582.441 241.451C583.574 241.452 584.448 240.979 585.061 240.032C585.688 239.086 586.002 237.746 586.003 236.013C586.003 234.279 585.691 232.939 585.064 231.992C584.451 231.032 583.578 230.552 582.445 230.551C581.311 230.551 580.438 231.024 579.824 231.97C579.211 232.917 578.903 234.263 578.903 236.01C578.902 237.743 579.208 239.084 579.821 240.03ZM599.018 241.298C598.071 242.617 596.744 243.277 595.038 243.276C593.331 243.275 592.005 242.615 591.058 241.295C590.112 239.974 589.64 238.214 589.64 236.014C589.641 233.814 590.115 232.054 591.062 230.735C592.009 229.415 593.336 228.755 595.043 228.756C596.75 228.757 598.076 229.417 599.022 230.738C599.969 232.058 600.441 233.818 600.44 236.018C600.44 238.218 599.966 239.978 599.018 241.298ZM592.419 240.035C593.032 240.982 593.905 241.456 595.038 241.456C596.172 241.457 597.045 240.984 597.659 240.037C598.286 239.091 598.6 237.751 598.6 236.017C598.601 234.284 598.288 232.944 597.662 231.997C597.049 231.037 596.176 230.557 595.042 230.556C593.909 230.556 593.036 231.029 592.422 231.975C591.808 232.922 591.501 234.268 591.5 236.015C591.5 237.748 591.806 239.088 592.419 240.035ZM604.651 240.96L603.349 245.819L601.849 245.819L602.651 240.959L604.651 240.96ZM615.464 241.304C614.517 242.623 613.19 243.283 611.483 243.282C609.776 243.282 608.45 242.621 607.504 241.301C606.558 239.98 606.085 238.22 606.086 236.02C606.086 233.82 606.56 232.06 607.508 230.741C608.455 229.421 609.782 228.762 611.488 228.762C613.195 228.763 614.521 229.423 615.468 230.744C616.414 232.064 616.886 233.824 616.886 236.024C616.885 238.224 616.411 239.984 615.464 241.304ZM608.864 240.041C609.477 240.988 610.35 241.462 611.484 241.462C612.617 241.463 613.49 240.99 614.104 240.043C614.731 239.097 615.045 237.757 615.046 236.024C615.046 234.29 614.733 232.95 614.107 232.003C613.494 231.043 612.621 230.563 611.488 230.562C610.354 230.562 609.481 231.035 608.867 231.981C608.253 232.928 607.946 234.274 607.946 236.021C607.945 237.754 608.251 239.094 608.864 240.041ZM628.061 241.308C627.114 242.628 625.787 243.288 624.081 243.287C622.374 243.286 621.048 242.626 620.101 241.305C619.155 239.985 618.683 238.225 618.683 236.025C618.684 233.825 619.158 232.065 620.105 230.745C621.052 229.426 622.379 228.766 624.086 228.767C625.793 228.768 627.119 229.428 628.065 230.748C629.011 232.069 629.484 233.829 629.483 236.029C629.483 238.229 629.009 239.989 628.061 241.308ZM621.462 240.046C622.075 240.993 622.948 241.467 624.081 241.467C625.215 241.467 626.088 240.994 626.702 240.048C627.329 239.102 627.643 237.762 627.643 236.028C627.644 234.295 627.331 232.955 626.705 232.008C626.092 231.048 625.219 230.567 624.085 230.567C622.952 230.567 622.079 231.04 621.465 231.986C620.851 232.932 620.544 234.279 620.543 236.026C620.543 237.759 620.849 239.099 621.462 240.046ZM640.659 241.313C639.712 242.633 638.385 243.292 636.678 243.292C634.972 243.291 633.645 242.631 632.699 241.31C631.753 239.99 631.28 238.23 631.281 236.03C631.282 233.83 631.756 232.07 632.703 230.75C633.65 229.431 634.977 228.771 636.684 228.772C638.39 228.772 639.717 229.433 640.663 230.753C641.609 232.074 642.082 233.834 642.081 236.034C642.08 238.234 641.606 239.994 640.659 241.313ZM634.059 240.051C634.672 240.998 635.546 241.471 636.679 241.472C637.812 241.472 638.686 240.999 639.299 240.053C639.926 239.106 640.24 237.766 640.241 236.033C640.242 234.3 639.929 232.96 639.302 232.013C638.69 231.052 637.816 230.572 636.683 230.572C635.55 230.571 634.676 231.044 634.062 231.991C633.449 232.937 633.142 234.284 633.141 236.03C633.14 237.764 633.446 239.104 634.059 240.051ZM646.291 240.975L644.99 245.835L643.49 245.834L644.291 240.975L646.291 240.975ZM657.104 241.319C656.157 242.639 654.83 243.298 653.124 243.298C651.417 243.297 650.09 242.637 649.144 241.316C648.198 239.996 647.725 238.236 647.726 236.036C647.727 233.836 648.201 232.076 649.148 230.756C650.095 229.437 651.422 228.777 653.129 228.778C654.836 228.778 656.162 229.439 657.108 230.759C658.054 232.08 658.527 233.84 658.526 236.04C658.525 238.24 658.051 240 657.104 241.319ZM650.505 240.057C651.118 241.004 651.991 241.477 653.124 241.478C654.258 241.478 655.131 241.005 655.745 240.059C656.372 239.112 656.686 237.772 656.686 236.039C656.687 234.306 656.374 232.966 655.748 232.019C655.135 231.059 654.262 230.578 653.128 230.578C651.995 230.577 651.121 231.05 650.508 231.997C649.894 232.943 649.587 234.29 649.586 236.036C649.586 237.77 649.892 239.11 650.505 240.057ZM669.702 241.324C668.755 242.644 667.428 243.303 665.721 243.303C664.015 243.302 662.688 242.641 661.742 241.321C660.796 240.001 660.323 238.241 660.324 236.041C660.325 233.841 660.799 232.081 661.746 230.761C662.693 229.441 664.02 228.782 665.727 228.783C667.433 228.783 668.76 229.444 669.706 230.764C670.652 232.084 671.125 233.845 671.124 236.045C671.123 238.245 670.649 240.004 669.702 241.324ZM663.102 240.062C663.715 241.008 664.589 241.482 665.722 241.483C666.855 241.483 667.729 241.01 668.342 240.064C668.969 239.117 669.283 237.777 669.284 236.044C669.285 234.311 668.972 232.97 668.345 232.024C667.732 231.063 666.859 230.583 665.726 230.583C664.593 230.582 663.719 231.055 663.105 232.002C662.492 232.948 662.185 234.295 662.184 236.041C662.183 237.775 662.489 239.115 663.102 240.062ZM682.3 241.329C681.352 242.648 680.026 243.308 678.319 243.307C676.612 243.307 675.286 242.646 674.34 241.326C673.393 240.005 672.921 238.245 672.922 236.045C672.922 233.845 673.396 232.085 674.344 230.766C675.291 229.446 676.618 228.787 678.324 228.787C680.031 228.788 681.357 229.448 682.304 230.769C683.25 232.089 683.722 233.849 683.722 236.049C683.721 238.249 683.247 240.009 682.3 241.329ZM675.7 240.066C676.313 241.013 677.186 241.487 678.32 241.487C679.453 241.488 680.326 241.015 680.94 240.068C681.567 239.122 681.881 237.782 681.882 236.049C681.882 234.315 681.569 232.975 680.943 232.028C680.33 231.068 679.457 230.588 678.324 230.587C677.19 230.587 676.317 231.06 675.703 232.006C675.089 232.953 674.782 234.299 674.782 236.046C674.781 237.779 675.087 239.119 675.7 240.066Z" fill="white" fill-opacity="0.7"/>
<circle cx="517.469" cy="212.5" r="24" stroke="#FF4DE3"/>
<circle cx="517.469" cy="212.5" r="18" stroke="url(#paint2_linear_5005_229)"/>
<circle cx="517.969" cy="212" r="6" fill="#FF4DE3"/>
<path d="M572.438 411.004L572.437 412.764L568.297 412.762L568.292 425.002L566.452 425.002L566.457 412.762L562.337 412.76L562.338 411L572.438 411.004ZM580.56 415.007L582.3 415.008L582.297 425.008L580.557 425.007L580.557 423.287C579.69 424.607 578.43 425.266 576.777 425.266C575.377 425.265 574.183 424.758 573.197 423.744C572.211 422.717 571.718 421.47 571.719 420.004C571.719 418.537 572.213 417.297 573.2 416.284C574.187 415.258 575.381 414.745 576.781 414.746C578.434 414.746 579.694 415.407 580.56 416.727L580.56 415.007ZM576.997 423.586C578.011 423.586 578.857 423.246 579.538 422.567C580.218 421.873 580.558 421.02 580.559 420.007C580.559 418.994 580.219 418.147 579.54 417.467C578.86 416.773 578.013 416.426 577 416.426C576 416.425 575.16 416.772 574.48 417.465C573.799 418.144 573.459 418.991 573.459 420.004C573.458 421.018 573.798 421.871 574.478 422.565C575.157 423.245 575.997 423.585 576.997 423.586ZM593.613 425.012L591.573 425.011L588.774 421.23L585.953 425.009L583.913 425.008L587.755 419.87L584.137 415.008L586.197 415.009L588.775 418.49L591.357 415.011L593.397 415.012L589.795 419.85L593.613 425.012ZM596.329 417.373C595.969 417.373 595.662 417.246 595.409 416.992C595.156 416.739 595.029 416.432 595.029 416.072C595.029 415.712 595.156 415.406 595.41 415.152C595.663 414.899 595.97 414.773 596.33 414.773C596.703 414.773 597.01 414.9 597.25 415.153C597.503 415.407 597.629 415.713 597.629 416.073C597.629 416.433 597.502 416.74 597.249 416.993C597.009 417.246 596.702 417.373 596.329 417.373ZM596.326 425.233C595.966 425.233 595.659 425.106 595.406 424.852C595.153 424.599 595.026 424.292 595.026 423.932C595.026 423.572 595.153 423.266 595.407 423.012C595.66 422.759 595.967 422.633 596.327 422.633C596.7 422.633 597.007 422.76 597.247 423.013C597.5 423.267 597.626 423.573 597.626 423.933C597.626 424.293 597.499 424.6 597.246 424.853C597.006 425.106 596.699 425.233 596.326 425.233ZM607.734 411.017L609.334 411.018L609.329 425.018L607.489 425.017L607.494 413.017L604.513 413.896L604.054 412.296L607.734 411.017ZM621.179 423.302C620.232 424.622 618.905 425.281 617.198 425.281C615.491 425.28 614.165 424.62 613.219 423.299C612.273 421.979 611.8 420.219 611.801 418.019C611.802 415.819 612.276 414.059 613.223 412.739C614.17 411.42 615.497 410.76 617.203 410.761C618.91 410.761 620.237 411.422 621.183 412.742C622.129 414.062 622.602 415.823 622.601 418.023C622.6 420.223 622.126 421.982 621.179 423.302ZM614.579 422.04C615.192 422.987 616.065 423.46 617.199 423.461C618.332 423.461 619.206 422.988 619.819 422.042C620.446 421.095 620.76 419.755 620.761 418.022C620.761 416.289 620.449 414.949 619.822 414.002C619.209 413.041 618.336 412.561 617.203 412.561C616.069 412.56 615.196 413.033 614.582 413.98C613.969 414.926 613.661 416.273 613.661 418.019C613.66 419.753 613.966 421.093 614.579 422.04ZM627.368 416.964C626.462 416.964 625.708 416.664 625.109 416.064C624.509 415.463 624.209 414.73 624.209 413.863C624.21 413.01 624.51 412.283 625.11 411.684C625.724 411.07 626.477 410.764 627.37 410.764C628.277 410.765 629.03 411.065 629.63 411.665C630.23 412.266 630.53 412.999 630.529 413.866C630.529 414.732 630.229 415.466 629.629 416.065C629.042 416.665 628.288 416.965 627.368 416.964ZM626.209 415.044C626.515 415.351 626.902 415.504 627.369 415.504C627.835 415.505 628.215 415.345 628.509 415.025C628.816 414.705 628.969 414.318 628.969 413.865C628.97 413.412 628.816 413.032 628.51 412.725C628.217 412.405 627.837 412.245 627.37 412.244C626.903 412.244 626.517 412.404 626.21 412.724C625.916 413.031 625.77 413.411 625.769 413.864C625.769 414.331 625.916 414.724 626.209 415.044ZM625.146 423.044L634.45 412.647L635.43 413.187L626.106 423.604L625.146 423.044ZM635.665 424.368C635.065 424.967 634.312 425.267 633.405 425.267C632.498 425.266 631.745 424.966 631.145 424.366C630.546 423.766 630.246 423.032 630.246 422.166C630.247 421.299 630.547 420.566 631.147 419.966C631.747 419.366 632.501 419.066 633.407 419.067C634.314 419.067 635.067 419.367 635.667 419.968C636.267 420.568 636.567 421.301 636.566 422.168C636.566 423.035 636.266 423.768 635.665 424.368ZM632.246 423.326C632.552 423.633 632.939 423.787 633.406 423.787C633.872 423.787 634.252 423.634 634.546 423.327C634.853 423.007 635.006 422.621 635.006 422.167C635.006 421.714 634.853 421.334 634.547 421.027C634.253 420.707 633.874 420.547 633.407 420.547C632.94 420.547 632.553 420.706 632.247 421.026C631.953 421.333 631.806 421.713 631.806 422.166C631.806 422.619 631.953 423.006 632.246 423.326ZM576.566 443.005L576.56 457.005L574.72 457.005L574.724 446.065L570.142 453.683L569.902 453.683L565.324 446.081L565.32 457.001L563.46 457.001L563.466 443.001L565.566 443.001L570.023 450.403L574.466 443.005L576.566 443.005ZM587.658 447.01L589.398 447.01L589.394 457.01L587.654 457.01L587.655 455.29C586.788 456.609 585.527 457.269 583.874 457.268C582.474 457.268 581.281 456.761 580.295 455.747C579.308 454.72 578.815 453.473 578.816 452.006C578.817 450.54 579.31 449.3 580.297 448.287C581.284 447.261 582.478 446.748 583.878 446.748C585.531 446.749 586.791 447.409 587.657 448.73L587.658 447.01ZM584.095 455.588C585.108 455.589 585.955 455.249 586.635 454.569C587.315 453.876 587.656 453.023 587.656 452.01C587.656 450.996 587.317 450.149 586.637 449.469C585.957 448.776 585.111 448.429 584.097 448.428C583.097 448.428 582.257 448.774 581.577 449.467C580.897 450.147 580.556 450.994 580.556 452.007C580.556 453.02 580.895 453.874 581.575 454.567C582.255 455.248 583.095 455.588 584.095 455.588ZM593.774 448.692C594.347 447.452 595.388 446.832 596.894 446.833L596.894 448.653C596.04 448.613 595.307 448.839 594.693 449.332C594.08 449.825 593.773 450.619 593.772 451.712L593.77 457.012L592.03 457.011L592.034 447.011L593.774 447.012L593.774 448.692ZM607.053 457.017L604.893 457.016L600.335 452.274L600.333 457.014L598.593 457.014L598.598 443.014L600.338 443.014L600.335 451.434L604.657 447.016L606.897 447.017L602.115 451.855L607.053 457.017ZM608.975 452.818C609.148 453.711 609.554 454.404 610.194 454.898C610.847 455.392 611.647 455.639 612.594 455.639C613.914 455.639 614.874 455.153 615.474 454.18L616.954 455.021C615.98 456.527 614.513 457.28 612.553 457.279C610.966 457.278 609.673 456.784 608.674 455.797C607.687 454.797 607.194 453.537 607.195 452.017C607.195 450.51 607.683 449.257 608.656 448.257C609.63 447.258 610.89 446.758 612.437 446.759C613.904 446.759 615.097 447.28 616.016 448.32C616.949 449.347 617.415 450.587 617.415 452.041C617.415 452.294 617.395 452.554 617.355 452.821L608.975 452.818ZM612.436 448.399C611.503 448.399 610.73 448.665 610.116 449.198C609.502 449.718 609.122 450.418 608.975 451.298L615.655 451.3C615.509 450.353 615.136 449.633 614.536 449.14C613.936 448.646 613.236 448.399 612.436 448.399ZM624.563 448.703L621.903 448.702L621.901 454.122C621.901 454.616 621.994 454.969 622.181 455.183C622.381 455.383 622.681 455.489 623.081 455.503C623.481 455.503 623.974 455.49 624.561 455.463L624.56 457.023C623.04 457.223 621.927 457.102 621.22 456.662C620.514 456.209 620.161 455.362 620.161 454.122L620.163 448.702L618.183 448.701L618.184 447.021L620.164 447.022L620.165 444.742L621.905 444.222L621.904 447.022L624.564 447.023L624.563 448.703ZM627.505 445.204C627.171 445.204 626.891 445.091 626.665 444.864C626.438 444.637 626.325 444.364 626.325 444.044C626.325 443.724 626.439 443.451 626.665 443.224C626.892 442.984 627.172 442.864 627.506 442.864C627.826 442.865 628.099 442.985 628.325 443.225C628.552 443.452 628.665 443.725 628.665 444.045C628.665 444.365 628.552 444.638 628.325 444.865C628.098 445.091 627.825 445.205 627.505 445.204ZM626.62 457.024L626.624 447.024L628.364 447.025L628.36 457.025L626.62 457.024ZM635.999 446.768C637.172 446.768 638.112 447.142 638.818 447.889C639.525 448.622 639.878 449.622 639.877 450.889L639.875 457.029L638.135 457.028L638.137 450.988C638.137 450.175 637.918 449.548 637.478 449.108C637.038 448.655 636.431 448.428 635.658 448.428C634.791 448.427 634.091 448.7 633.558 449.247C633.024 449.78 632.757 450.606 632.757 451.726L632.755 457.026L631.015 457.026L631.019 447.026L632.759 447.026L632.758 448.466C633.465 447.333 634.545 446.767 635.999 446.768ZM650.608 447.033L652.328 447.034L652.324 456.614C652.323 458.094 651.823 459.24 650.823 460.053C649.822 460.88 648.622 461.292 647.222 461.292C646.102 461.291 645.136 461.078 644.322 460.651C643.509 460.237 642.896 459.637 642.483 458.85L644.003 457.991C644.55 459.111 645.636 459.671 647.263 459.672C648.303 459.672 649.116 459.399 649.703 458.853C650.303 458.306 650.604 457.56 650.604 456.613L650.605 455.193C649.724 456.526 648.47 457.192 646.844 457.192C645.417 457.191 644.211 456.684 643.224 455.67C642.238 454.657 641.745 453.423 641.746 451.97C641.746 450.516 642.24 449.29 643.227 448.29C644.214 447.277 645.421 446.771 646.848 446.772C648.488 446.772 649.741 447.433 650.607 448.753L650.608 447.033ZM644.505 454.511C645.185 455.191 646.031 455.531 647.044 455.532C648.058 455.532 648.905 455.192 649.585 454.513C650.265 453.833 650.605 452.986 650.606 451.973C650.606 450.973 650.266 450.133 649.587 449.453C648.907 448.772 648.06 448.432 647.047 448.432C646.034 448.431 645.187 448.771 644.507 449.451C643.826 450.131 643.486 450.97 643.486 451.97C643.485 452.984 643.825 453.831 644.505 454.511ZM661.063 449.397C660.703 449.397 660.396 449.27 660.143 449.017C659.89 448.763 659.763 448.457 659.763 448.097C659.764 447.737 659.89 447.43 660.144 447.177C660.397 446.923 660.704 446.797 661.064 446.797C661.437 446.797 661.744 446.924 661.984 447.177C662.237 447.431 662.364 447.738 662.363 448.098C662.363 448.458 662.237 448.764 661.983 449.017C661.743 449.271 661.436 449.397 661.063 449.397ZM661.06 457.257C660.7 457.257 660.393 457.13 660.14 456.877C659.887 456.623 659.76 456.317 659.76 455.957C659.761 455.597 659.887 455.29 660.141 455.037C660.394 454.783 660.701 454.657 661.061 454.657C661.434 454.657 661.741 454.784 661.981 455.037C662.234 455.291 662.361 455.598 662.36 455.958C662.36 456.318 662.234 456.624 661.98 456.877C661.74 457.131 661.433 457.257 661.06 457.257ZM673.907 448.502C675.227 448.502 676.34 448.896 677.246 449.683C678.166 450.457 678.625 451.53 678.625 452.904C678.624 454.264 678.157 455.337 677.224 456.123C676.29 456.909 675.157 457.302 673.823 457.302C672.757 457.301 671.803 457.048 670.964 456.541C670.124 456.02 669.537 455.274 669.204 454.3L670.785 453.401C670.971 454.081 671.331 454.601 671.864 454.961C672.397 455.308 673.051 455.482 673.824 455.482C674.704 455.482 675.417 455.256 675.964 454.803C676.511 454.349 676.785 453.716 676.785 452.903C676.785 452.09 676.512 451.456 675.966 451.003C675.419 450.536 674.719 450.302 673.866 450.302L669.906 450.3L670.429 443.041L678.089 443.043L678.088 444.783L672.108 444.781L671.867 448.501L673.907 448.502ZM683.235 448.985C682.328 448.985 681.575 448.685 680.975 448.084C680.376 447.484 680.076 446.751 680.076 445.884C680.077 445.031 680.377 444.304 680.977 443.704C681.591 443.091 682.344 442.785 683.237 442.785C684.144 442.786 684.897 443.086 685.497 443.686C686.097 444.286 686.397 445.02 686.396 445.887C686.396 446.753 686.096 447.486 685.495 448.086C684.909 448.686 684.155 448.986 683.235 448.985ZM682.076 447.065C682.382 447.372 682.769 447.525 683.236 447.525C683.702 447.526 684.082 447.366 684.376 447.046C684.683 446.726 684.836 446.339 684.836 445.886C684.836 445.433 684.683 445.053 684.377 444.746C684.083 444.426 683.704 444.266 683.237 444.265C682.77 444.265 682.383 444.425 682.077 444.745C681.783 445.051 681.636 445.431 681.636 445.885C681.636 446.351 681.783 446.745 682.076 447.065ZM681.013 455.065L690.317 444.668L691.297 445.208L681.973 455.625L681.013 455.065ZM691.532 456.388C690.932 456.988 690.179 457.288 689.272 457.288C688.365 457.287 687.612 456.987 687.012 456.387C686.413 455.787 686.113 455.053 686.113 454.186C686.114 453.32 686.414 452.587 687.014 451.987C687.614 451.387 688.368 451.087 689.274 451.088C690.181 451.088 690.934 451.388 691.534 451.988C692.134 452.589 692.434 453.322 692.433 454.189C692.433 455.055 692.133 455.789 691.532 456.388ZM688.113 455.347C688.419 455.654 688.806 455.807 689.273 455.808C689.739 455.808 690.119 455.655 690.413 455.348C690.72 455.028 690.873 454.642 690.873 454.188C690.873 453.735 690.72 453.355 690.414 453.048C690.12 452.728 689.74 452.568 689.274 452.568C688.807 452.567 688.42 452.727 688.114 453.047C687.82 453.354 687.673 453.734 687.673 454.187C687.673 454.64 687.82 455.027 688.113 455.347ZM568.914 475.003C570.82 475.003 572.4 475.684 573.653 477.044C574.919 478.392 575.552 480.045 575.551 482.005C575.55 483.965 574.916 485.625 573.649 486.984C572.395 488.331 570.815 489.003 568.908 489.003L563.448 489.001L563.454 475.001L568.914 475.003ZM568.909 487.243C570.336 487.243 571.503 486.744 572.41 485.744C573.317 484.744 573.77 483.498 573.771 482.004C573.772 480.511 573.319 479.264 572.412 478.264C571.506 477.264 570.34 476.763 568.913 476.763L565.313 476.761L565.309 487.241L568.909 487.243ZM578.845 484.806C579.018 485.7 579.425 486.393 580.065 486.887C580.718 487.38 581.518 487.627 582.464 487.628C583.784 487.628 584.745 487.142 585.345 486.169L586.825 487.009C585.851 488.516 584.384 489.268 582.424 489.268C580.837 489.267 579.544 488.773 578.544 487.786C577.558 486.786 577.065 485.526 577.066 484.006C577.066 482.499 577.553 481.246 578.527 480.246C579.501 479.247 580.761 478.747 582.308 478.748C583.774 478.748 584.968 479.269 585.887 480.309C586.82 481.336 587.286 482.576 587.286 484.029C587.286 484.283 587.266 484.543 587.225 484.809L578.845 484.806ZM582.307 480.388C581.374 480.387 580.6 480.654 579.987 481.187C579.373 481.707 578.993 482.406 578.846 483.286L585.526 483.289C585.38 482.342 585.007 481.622 584.407 481.128C583.807 480.635 583.107 480.388 582.307 480.388ZM595.897 479.013L597.777 479.013L593.773 489.012L591.733 489.011L587.737 479.01L589.617 479.01L592.754 487.152L595.897 479.013ZM600.076 484.814C600.249 485.708 600.655 486.401 601.295 486.895C601.948 487.388 602.748 487.635 603.695 487.636C605.015 487.636 605.975 487.15 606.575 486.177L608.055 487.017C607.081 488.524 605.614 489.276 603.654 489.276C602.068 489.275 600.774 488.781 599.775 487.794C598.789 486.794 598.296 485.534 598.296 484.014C598.297 482.507 598.784 481.254 599.758 480.254C600.731 479.254 601.992 478.755 603.538 478.756C605.005 478.756 606.198 479.277 607.118 480.317C608.051 481.344 608.517 482.584 608.516 484.037C608.516 484.291 608.496 484.551 608.456 484.817L600.076 484.814ZM603.538 480.396C602.604 480.395 601.831 480.662 601.217 481.195C600.604 481.714 600.224 482.414 600.077 483.294L606.757 483.297C606.61 482.35 606.237 481.63 605.637 481.136C605.038 480.643 604.338 480.396 603.538 480.396ZM610.515 489.018L610.52 474.418L612.26 474.419L612.255 489.019L610.515 489.018ZM623.35 487.763C622.322 488.776 621.076 489.282 619.609 489.282C618.142 489.281 616.896 488.774 615.87 487.76C614.857 486.746 614.35 485.5 614.351 484.02C614.351 482.54 614.859 481.293 615.872 480.28C616.899 479.267 618.146 478.761 619.613 478.762C621.08 478.762 622.326 479.269 623.352 480.283C624.379 481.297 624.891 482.544 624.891 484.024C624.89 485.504 624.377 486.75 623.35 487.763ZM619.61 487.582C620.61 487.582 621.45 487.242 622.13 486.562C622.81 485.883 623.151 485.036 623.151 484.023C623.151 483.01 622.812 482.163 622.132 481.482C621.452 480.802 620.612 480.462 619.612 480.462C618.626 480.461 617.792 480.801 617.112 481.481C616.432 482.16 616.091 483.007 616.091 484.02C616.091 485.034 616.43 485.88 617.11 486.561C617.79 487.241 618.623 487.581 619.61 487.582ZM632.464 478.766C633.864 478.767 635.057 479.281 636.044 480.308C637.03 481.321 637.523 482.562 637.522 484.028C637.522 485.495 637.028 486.741 636.041 487.768C635.054 488.781 633.86 489.287 632.46 489.286C630.807 489.286 629.547 488.625 628.681 487.305L628.679 493.025L626.939 493.024L626.944 479.024L628.684 479.025L628.683 480.745C629.551 479.425 630.811 478.766 632.464 478.766ZM632.241 487.606C633.241 487.607 634.081 487.267 634.761 486.587C635.441 485.894 635.782 485.041 635.782 484.028C635.783 483.014 635.443 482.167 634.763 481.487C634.083 480.794 633.244 480.447 632.244 480.446C631.23 480.446 630.383 480.792 629.703 481.485C629.023 482.165 628.683 483.012 628.682 484.025C628.682 485.038 629.021 485.892 629.701 486.585C630.381 487.266 631.228 487.606 632.241 487.606ZM650.4 478.773C651.52 478.773 652.427 479.14 653.12 479.874C653.813 480.594 654.159 481.574 654.159 482.814L654.157 489.034L652.417 489.034L652.419 482.874C652.419 482.1 652.219 481.5 651.82 481.074C651.42 480.647 650.886 480.433 650.22 480.433C649.473 480.433 648.873 480.686 648.419 481.192C647.979 481.685 647.759 482.445 647.759 483.472L647.757 489.032L646.017 489.031L646.019 482.871C646.019 482.098 645.826 481.498 645.44 481.071C645.066 480.644 644.553 480.431 643.9 480.431C643.166 480.43 642.553 480.683 642.059 481.19C641.579 481.696 641.339 482.456 641.339 483.47L641.337 489.03L639.597 489.029L639.6 479.029L641.34 479.03L641.34 480.37C642.02 479.303 643.014 478.77 644.32 478.771C645.667 478.771 646.647 479.338 647.26 480.472C647.954 479.339 649 478.773 650.4 478.773ZM657.791 484.836C657.964 485.729 658.37 486.423 659.01 486.916C659.663 487.41 660.463 487.657 661.41 487.657C662.73 487.658 663.69 487.171 664.29 486.198L665.77 487.039C664.796 488.545 663.329 489.298 661.369 489.297C659.782 489.297 658.489 488.803 657.49 487.816C656.503 486.815 656.011 485.555 656.011 484.035C656.012 482.528 656.499 481.275 657.472 480.276C658.446 479.276 659.706 478.777 661.253 478.777C662.72 478.778 663.913 479.298 664.832 480.338C665.765 481.365 666.232 482.606 666.231 484.059C666.231 484.312 666.211 484.572 666.171 484.839L657.791 484.836ZM661.252 480.417C660.319 480.417 659.546 480.683 658.932 481.216C658.319 481.736 657.938 482.436 657.791 483.316L664.471 483.318C664.325 482.372 663.952 481.651 663.352 481.158C662.752 480.664 662.052 480.417 661.252 480.417ZM673.213 478.782C674.387 478.782 675.326 479.156 676.033 479.903C676.739 480.636 677.092 481.636 677.092 482.903L677.089 489.043L675.349 489.042L675.352 483.002C675.352 482.189 675.132 481.562 674.692 481.122C674.252 480.669 673.646 480.442 672.873 480.441C672.006 480.441 671.306 480.714 670.772 481.261C670.239 481.794 669.972 482.62 669.971 483.74L669.969 489.04L668.229 489.04L668.233 479.04L669.973 479.04L669.973 480.48C670.68 479.347 671.76 478.781 673.213 478.782ZM684.962 480.726L682.302 480.725L682.3 486.145C682.299 486.638 682.393 486.992 682.579 487.205C682.779 487.405 683.079 487.512 683.479 487.525C683.879 487.526 684.372 487.512 684.959 487.486L684.958 489.046C683.438 489.245 682.325 489.125 681.619 488.685C680.912 488.231 680.559 487.384 680.56 486.144L680.562 480.724L678.582 480.724L678.582 479.044L680.562 479.044L680.563 476.764L682.303 476.245L682.302 479.045L684.962 479.046L684.962 480.726ZM693.18 481.409C692.82 481.409 692.513 481.282 692.26 481.029C692.007 480.775 691.88 480.469 691.88 480.109C691.88 479.749 692.007 479.442 692.261 479.189C692.514 478.935 692.821 478.809 693.181 478.809C693.554 478.809 693.861 478.936 694.101 479.189C694.354 479.443 694.48 479.75 694.48 480.11C694.48 480.47 694.353 480.776 694.1 481.029C693.86 481.283 693.553 481.409 693.18 481.409ZM693.177 489.269C692.817 489.269 692.51 489.142 692.257 488.889C692.004 488.635 691.877 488.329 691.877 487.969C691.878 487.609 692.004 487.302 692.258 487.049C692.511 486.795 692.818 486.669 693.178 486.669C693.551 486.669 693.858 486.796 694.098 487.049C694.351 487.303 694.478 487.61 694.477 487.97C694.477 488.33 694.351 488.636 694.097 488.889C693.857 489.143 693.55 489.269 693.177 489.269ZM706.023 480.514C707.343 480.514 708.457 480.908 709.363 481.695C710.283 482.469 710.742 483.542 710.742 484.916C710.741 486.276 710.274 487.349 709.341 488.135C708.407 488.921 707.274 489.314 705.94 489.314C704.874 489.313 703.92 489.06 703.08 488.553C702.241 488.032 701.654 487.286 701.321 486.312L702.902 485.413C703.088 486.093 703.448 486.613 703.981 486.973C704.514 487.32 705.168 487.494 705.941 487.494C706.821 487.494 707.534 487.268 708.081 486.815C708.628 486.361 708.902 485.728 708.902 484.915C708.902 484.102 708.629 483.468 708.083 483.015C707.536 482.548 706.836 482.314 705.983 482.314L702.023 482.312L702.546 475.053L710.206 475.055L710.205 476.795L704.225 476.793L703.983 480.513L706.023 480.514ZM715.352 480.997C714.445 480.997 713.692 480.697 713.092 480.096C712.493 479.496 712.193 478.763 712.193 477.896C712.194 477.043 712.494 476.316 713.094 475.716C713.708 475.103 714.461 474.797 715.354 474.797C716.261 474.798 717.014 475.098 717.614 475.698C718.214 476.298 718.514 477.032 718.513 477.899C718.513 478.765 718.213 479.498 717.612 480.098C717.026 480.698 716.272 480.998 715.352 480.997ZM714.193 479.077C714.499 479.384 714.886 479.537 715.353 479.537C715.819 479.538 716.199 479.378 716.493 479.058C716.8 478.738 716.953 478.351 716.953 477.898C716.953 477.445 716.8 477.065 716.494 476.758C716.2 476.438 715.82 476.278 715.354 476.277C714.887 476.277 714.5 476.437 714.194 476.757C713.9 477.063 713.753 477.443 713.753 477.897C713.753 478.363 713.9 478.757 714.193 479.077ZM713.13 487.077L722.434 476.68L723.413 477.22L714.09 487.637L713.13 487.077ZM723.649 488.4C723.049 489 722.296 489.3 721.389 489.3C720.482 489.299 719.729 488.999 719.129 488.399C718.53 487.799 718.23 487.065 718.23 486.198C718.23 485.332 718.531 484.599 719.131 483.999C719.731 483.399 720.485 483.099 721.391 483.1C722.298 483.1 723.051 483.4 723.651 484C724.251 484.601 724.55 485.334 724.55 486.201C724.55 487.067 724.25 487.801 723.649 488.4ZM720.23 487.359C720.536 487.666 720.923 487.819 721.39 487.82C721.856 487.82 722.236 487.667 722.53 487.36C722.836 487.04 722.99 486.654 722.99 486.2C722.99 485.747 722.837 485.367 722.531 485.06C722.237 484.74 721.857 484.58 721.391 484.58C720.924 484.579 720.537 484.739 720.231 485.059C719.937 485.366 719.79 485.746 719.79 486.199C719.79 486.652 719.936 487.039 720.23 487.359Z" fill="white" fill-opacity="0.7"/>
<circle cx="527.469" cy="429.5" r="24" stroke="#FF388C"/>
<circle cx="527.469" cy="429.5" r="18" stroke="url(#paint3_linear_5005_229)"/>
<circle cx="527.969" cy="429" r="6" fill="#FF388C"/>
<defs>
<filter id="filter0_b_5005_229" x="-1.53125" y="-1.93213" width="545" height="527.178" filterUnits="userSpaceOnUse" color-interpolation-filters="sRGB">
<feFlood flood-opacity="0" result="BackgroundImageFix"/>
<feGaussianBlur in="BackgroundImageFix" stdDeviation="1"/>
<feComposite in2="SourceAlpha" operator="in" result="effect1_backgroundBlur_5005_229"/>
<feBlend mode="normal" in="SourceGraphic" in2="effect1_backgroundBlur_5005_229" result="shape"/>
</filter>
<filter id="filter1_b_5005_229" x="-1.53076" y="-1.93213" width="545" height="527.178" filterUnits="userSpaceOnUse" color-interpolation-filters="sRGB">
<feFlood flood-opacity="0" result="BackgroundImageFix"/>
<feGaussianBlur in="BackgroundImageFix" stdDeviation="1"/>
<feComposite in2="SourceAlpha" operator="in" result="effect1_backgroundBlur_5005_229"/>
<feBlend mode="normal" in="SourceGraphic" in2="effect1_backgroundBlur_5005_229" result="shape"/>
</filter>
<filter id="filter2_b_5005_229" x="42.4692" y="-1.93213" width="545" height="527.178" filterUnits="userSpaceOnUse" color-interpolation-filters="sRGB">
<feFlood flood-opacity="0" result="BackgroundImageFix"/>
<feGaussianBlur in="BackgroundImageFix" stdDeviation="1"/>
<feComposite in2="SourceAlpha" operator="in" result="effect1_backgroundBlur_5005_229"/>
<feBlend mode="normal" in="SourceGraphic" in2="effect1_backgroundBlur_5005_229" result="shape"/>
</filter>
<linearGradient id="paint0_linear_5005_229" x1="29.4691" y1="514" x2="36.4691" y2="551" gradientUnits="userSpaceOnUse">
<stop stop-color="#56FFEB"/>
<stop offset="1" stop-color="#56FFEB" stop-opacity="0"/>
</linearGradient>
<linearGradient id="paint1_linear_5005_229" x1="131.469" y1="70" x2="138.469" y2="107" gradientUnits="userSpaceOnUse">
<stop stop-color="#9D71FF"/>
<stop offset="1" stop-color="#56FFEB" stop-opacity="0"/>
</linearGradient>
<linearGradient id="paint2_linear_5005_229" x1="510.469" y1="194" x2="517.469" y2="231" gradientUnits="userSpaceOnUse">
<stop stop-color="#FF4DE3"/>
<stop offset="1" stop-color="#FF4DE3" stop-opacity="0"/>
</linearGradient>
<linearGradient id="paint3_linear_5005_229" x1="520.469" y1="411" x2="527.469" y2="448" gradientUnits="userSpaceOnUse">
<stop stop-color="#FF388C"/>
<stop offset="1" stop-color="#FF388C" stop-opacity="0"/>
</linearGradient>
</defs>
</svg>
