<svg width="1920" height="1137" viewBox="0 0 1920 1137" fill="none" xmlns="http://www.w3.org/2000/svg">
<g opacity="0.4">
<path d="M510.483 -47V590.875L-65.9974 710.525" stroke="white" stroke-opacity="0.42" stroke-width="0.25" stroke-linecap="round" stroke-linejoin="round"/>
<path d="M603.852 -47V590.875L-65.9974 764.65" stroke="white" stroke-opacity="0.42" stroke-width="0.25" stroke-linecap="round" stroke-linejoin="round"/>
<path d="M697.22 -47V590.875L-65.998 854.831" stroke="white" stroke-opacity="0.42" stroke-width="0.25" stroke-linecap="round" stroke-linejoin="round"/>
<path d="M790.597 -47V590.875L-65.5538 1034.89" stroke="white" stroke-opacity="0.42" stroke-width="0.25" stroke-linecap="round" stroke-linejoin="round"/>
<path d="M883.963 -47V590.875L455.52 1034.89" stroke="white" stroke-opacity="0.42" stroke-width="0.25" stroke-linecap="round" stroke-linejoin="round"/>
<path d="M977.334 -47V590.875L976.604 1034.89" stroke="white" stroke-opacity="0.42" stroke-width="0.25" stroke-linecap="round" stroke-linejoin="round"/>
<path d="M1070.71 -47V590.875L1497.68 1034.89" stroke="white" stroke-opacity="0.42" stroke-width="0.25" stroke-linecap="round" stroke-linejoin="round"/>
<path d="M1164.08 -47V590.875L2018.75 1034.89" stroke="white" stroke-opacity="0.42" stroke-width="0.25" stroke-linecap="round" stroke-linejoin="round"/>
<path d="M1257.46 -47V590.875L2021 855.245" stroke="white" stroke-opacity="0.42" stroke-width="0.25" stroke-linecap="round" stroke-linejoin="round"/>
<path d="M1350.82 -47V590.875L2021 764.881" stroke="white" stroke-opacity="0.42" stroke-width="0.25" stroke-linecap="round" stroke-linejoin="round"/>
<path d="M1444.19 -47V590.875L2021 710.676" stroke="white" stroke-opacity="0.42" stroke-width="0.25" stroke-linecap="round" stroke-linejoin="round"/>
<path d="M1537.57 -47V590.875L2021 674.543" stroke="white" stroke-opacity="0.42" stroke-width="0.25" stroke-linecap="round" stroke-linejoin="round"/>
<path d="M1630.94 -47V590.875L2021 648.738" stroke="white" stroke-opacity="0.42" stroke-width="0.25" stroke-linecap="round" stroke-linejoin="round"/>
<path d="M1724.31 -47V590.875L2021 629.384" stroke="white" stroke-opacity="0.42" stroke-width="0.25" stroke-linecap="round" stroke-linejoin="round"/>
<path d="M1817.68 -47V590.875L2021 614.331" stroke="white" stroke-opacity="0.42" stroke-width="0.25" stroke-linecap="round" stroke-linejoin="round"/>
<path d="M1911.05 -47V590.875L2021 602.293" stroke="white" stroke-opacity="0.42" stroke-width="0.25" stroke-linecap="round" stroke-linejoin="round"/>
<path d="M-65.998 648.659L323.739 590.875V-47" stroke="white" stroke-opacity="0.42" stroke-width="0.25" stroke-linecap="round" stroke-linejoin="round"/>
<path d="M417.108 -47V590.875L-65.998 674.439" stroke="white" stroke-opacity="0.42" stroke-width="0.25" stroke-linecap="round" stroke-linejoin="round"/>
<path d="M230.371 -47V590.875L-66 629.327" stroke="white" stroke-opacity="0.42" stroke-width="0.25" stroke-linecap="round" stroke-linejoin="round"/>
<path d="M136.992 -47V590.875L-65.9974 614.283" stroke="white" stroke-opacity="0.42" stroke-width="0.25" stroke-linecap="round" stroke-linejoin="round"/>
<path d="M43.6264 -47V590.875L-65.998 602.251" stroke="white" stroke-opacity="0.42" stroke-width="0.25" stroke-linecap="round" stroke-linejoin="round"/>
<path d="M-65.998 542.474H2021" stroke="white" stroke-opacity="0.42" stroke-width="0.25" stroke-linecap="round" stroke-linejoin="round"/>
<path d="M-65.998 494.067H2021" stroke="white" stroke-opacity="0.42" stroke-width="0.25" stroke-linecap="round" stroke-linejoin="round"/>
<path d="M-65.998 445.666H2021" stroke="white" stroke-opacity="0.42" stroke-width="0.25" stroke-linecap="round" stroke-linejoin="round"/>
<path d="M-65.998 397.265H2021" stroke="white" stroke-opacity="0.42" stroke-width="0.25" stroke-linecap="round" stroke-linejoin="round"/>
<path d="M-65.998 348.858H2021" stroke="white" stroke-opacity="0.42" stroke-width="0.25" stroke-linecap="round" stroke-linejoin="round"/>
<path d="M-65.998 300.457H2021" stroke="white" stroke-opacity="0.42" stroke-width="0.25" stroke-linecap="round" stroke-linejoin="round"/>
<path d="M-65.998 252.055H2021" stroke="white" stroke-opacity="0.42" stroke-width="0.25" stroke-linecap="round" stroke-linejoin="round"/>
<path d="M-65.998 203.649H2021" stroke="white" stroke-opacity="0.42" stroke-width="0.25" stroke-linecap="round" stroke-linejoin="round"/>
<path d="M-65.998 155.247H2021" stroke="white" stroke-opacity="0.42" stroke-width="0.25" stroke-linecap="round" stroke-linejoin="round"/>
<path d="M-65.998 106.846H2021" stroke="white" stroke-opacity="0.42" stroke-width="0.25" stroke-linecap="round" stroke-linejoin="round"/>
<path d="M-65.998 58.4392H2021" stroke="white" stroke-opacity="0.42" stroke-width="0.25" stroke-linecap="round" stroke-linejoin="round"/>
<path d="M-65.998 10.0379H2021" stroke="white" stroke-opacity="0.42" stroke-width="0.25" stroke-linecap="round" stroke-linejoin="round"/>
<path d="M2021 803.827H-65.998" stroke="white" stroke-opacity="0.42" stroke-width="0.25" stroke-linecap="round" stroke-linejoin="round"/>
<path d="M2021 766.414H-65.998" stroke="white" stroke-opacity="0.42" stroke-width="0.25" stroke-linecap="round" stroke-linejoin="round"/>
<path d="M2021 737.066H-65.998" stroke="white" stroke-opacity="0.42" stroke-width="0.25" stroke-linecap="round" stroke-linejoin="round"/>
<path d="M2021 853.146H-65.998" stroke="white" stroke-opacity="0.42" stroke-width="0.25" stroke-linecap="round" stroke-linejoin="round"/>
<path d="M2021 713.421H-65.998" stroke="white" stroke-opacity="0.42" stroke-width="0.25" stroke-linecap="round" stroke-linejoin="round"/>
<path d="M2021 693.969H-65.998" stroke="white" stroke-opacity="0.42" stroke-width="0.25" stroke-linecap="round" stroke-linejoin="round"/>
<path d="M2021 595.225H-65.998" stroke="white" stroke-opacity="0.42" stroke-width="0.25" stroke-linecap="round" stroke-linejoin="round"/>
<path d="M2021 590.875H-65.998" stroke="white" stroke-opacity="0.42" stroke-width="0.25" stroke-linecap="round" stroke-linejoin="round"/>
<path d="M2021 605.211H-65.998" stroke="white" stroke-opacity="0.42" stroke-width="0.25" stroke-linecap="round" stroke-linejoin="round"/>
<path d="M2021 599.984H-65.998" stroke="white" stroke-opacity="0.42" stroke-width="0.25" stroke-linecap="round" stroke-linejoin="round"/>
<path d="M2021 651.953H-65.998" stroke="white" stroke-opacity="0.42" stroke-width="0.25" stroke-linecap="round" stroke-linejoin="round"/>
<path d="M2021 677.681H-65.998" stroke="white" stroke-opacity="0.42" stroke-width="0.25" stroke-linecap="round" stroke-linejoin="round"/>
<path d="M2021 921.142H-65.998" stroke="white" stroke-opacity="0.42" stroke-width="0.25" stroke-linecap="round" stroke-linejoin="round"/>
<path d="M2021 617.385H-65.998" stroke="white" stroke-opacity="0.42" stroke-width="0.25" stroke-linecap="round" stroke-linejoin="round"/>
<path d="M2021 610.983H-65.998" stroke="white" stroke-opacity="0.42" stroke-width="0.25" stroke-linecap="round" stroke-linejoin="round"/>
<path d="M2021 641.618H-65.998" stroke="white" stroke-opacity="0.42" stroke-width="0.25" stroke-linecap="round" stroke-linejoin="round"/>
<path d="M2021 632.544H-65.998" stroke="white" stroke-opacity="0.42" stroke-width="0.25" stroke-linecap="round" stroke-linejoin="round"/>
<path d="M2021 624.526H-65.998" stroke="white" stroke-opacity="0.42" stroke-width="0.25" stroke-linecap="round" stroke-linejoin="round"/>
<path d="M2021 663.849H-65.998" stroke="white" stroke-opacity="0.42" stroke-width="0.25" stroke-linecap="round" stroke-linejoin="round"/>
<path d="M2018.75 1034.89H-65.5538" stroke="white" stroke-opacity="0.42" stroke-width="0.25" stroke-linecap="round" stroke-linejoin="round"/>
</g>
<path opacity="0.7" d="M-96.7937 324.77L23.9811 438.092C285.461 683.436 696.322 670.356 941.667 408.876V408.876C1187.01 147.397 1597.87 134.316 1859.35 379.661L2539.08 1017.45" stroke="url(#paint0_linear_5058_226)" stroke-width="4" stroke-dasharray="1 32"/>
<path opacity="0.7" d="M-93.812 346.964L26.9628 460.286C288.442 705.631 699.304 692.55 944.648 431.071V431.071C1189.99 169.591 1600.85 156.511 1862.33 401.855L2542.07 1039.64" stroke="url(#paint1_linear_5058_226)" stroke-width="4" stroke-dasharray="1 32"/>
<path opacity="0.7" d="M-90.9646 371.154L29.8101 484.476C291.29 729.82 702.151 716.74 947.496 455.26V455.26C1192.84 193.781 1603.7 180.7 1865.18 426.045L2544.91 1063.83" stroke="url(#paint2_linear_5058_226)" stroke-width="4" stroke-dasharray="1 32"/>
<path d="M765 326.5H2113V325.5H765V326.5ZM765 347.524H2113V346.524H765V347.524ZM765 368.548H2113V367.548H765V368.548ZM765 389.572H2113V388.572H765V389.572ZM765 410.596H2113V409.596H765V410.596ZM765 431.62H2113V430.62H765V431.62ZM765 452.644H2113V451.644H765V452.644ZM765 473.668H2113V472.668H765V473.668ZM765 494.692H2113V493.692H765V494.692Z" fill="url(#paint3_linear_5058_226)" fill-opacity="0.6"/>
<path d="M765 494.693H2113V493.693H765V494.693ZM765 515.717H2113V514.717H765V515.717ZM765 536.741H2113V535.741H765V536.741ZM765 557.765H2113V556.765H765V557.765ZM765 578.789H2113V577.789H765V578.789ZM765 599.813H2113V598.813H765V599.813ZM765 620.837H2113V619.837H765V620.837ZM765 641.861H2113V640.861H765V641.861ZM765 662.885H2113V661.885H765V662.885Z" fill="url(#paint4_linear_5058_226)" fill-opacity="0.6"/>
<path d="M765 661.308H2113V660.308H765V661.308ZM765 682.332H2113V681.332H765V682.332ZM765 703.356H2113V702.356H765V703.356ZM765 724.38H2113V723.38H765V724.38ZM765 745.404H2113V744.404H765V745.404ZM765 766.428H2113V765.428H765V766.428ZM765 787.452H2113V786.452H765V787.452ZM765 808.476H2113V807.476H765V808.476ZM765 829.5H2113V828.5H765V829.5Z" fill="url(#paint5_linear_5058_226)" fill-opacity="0.6"/>
<defs>
<linearGradient id="paint0_linear_5058_226" x1="-202.358" y1="253.247" x2="2663.3" y2="965.077" gradientUnits="userSpaceOnUse">
<stop stop-color="#7A42F4"/>
<stop offset="0.0001" stop-color="#7A42F4"/>
<stop offset="1" stop-color="#E64AFF" stop-opacity="0.38"/>
</linearGradient>
<linearGradient id="paint1_linear_5058_226" x1="-199.377" y1="275.442" x2="2666.28" y2="987.272" gradientUnits="userSpaceOnUse">
<stop stop-color="#7A42F4"/>
<stop offset="0.0001" stop-color="#7A42F4"/>
<stop offset="1" stop-color="#E64AFF" stop-opacity="0.38"/>
</linearGradient>
<linearGradient id="paint2_linear_5058_226" x1="-196.529" y1="299.631" x2="2669.13" y2="1011.46" gradientUnits="userSpaceOnUse">
<stop stop-color="#7A42F4"/>
<stop offset="0.0001" stop-color="#7A42F4"/>
<stop offset="1" stop-color="#E64AFF" stop-opacity="0.38"/>
</linearGradient>
<linearGradient id="paint3_linear_5058_226" x1="765" y1="410.094" x2="2109.79" y2="478.903" gradientUnits="userSpaceOnUse">
<stop stop-color="#A034D9" stop-opacity="0.34"/>
<stop offset="0.514801" stop-color="white" stop-opacity="0"/>
<stop offset="1" stop-color="white" stop-opacity="0"/>
</linearGradient>
<linearGradient id="paint4_linear_5058_226" x1="765" y1="578.287" x2="2109.79" y2="647.096" gradientUnits="userSpaceOnUse">
<stop stop-color="#A034D9" stop-opacity="0.34"/>
<stop offset="0.514801" stop-color="white" stop-opacity="0"/>
<stop offset="1" stop-color="white" stop-opacity="0"/>
</linearGradient>
<linearGradient id="paint5_linear_5058_226" x1="765" y1="744.902" x2="2109.79" y2="813.711" gradientUnits="userSpaceOnUse">
<stop stop-color="#A034D9" stop-opacity="0.34"/>
<stop offset="0.514801" stop-color="white" stop-opacity="0"/>
<stop offset="1" stop-color="white" stop-opacity="0"/>
</linearGradient>
</defs>
</svg>
